<svg width="20" height="20" fill="none" xmlns="http://www.w3.org/2000/svg"><path d="M4.783 15.652h1.739a.435.435 0 0 0 0-.87h-1.74a1.306 1.306 0 0 1-1.304-1.304v-1.74c0-.718.586-1.303 1.305-1.303h1.739a.435.435 0 0 0 0-.87h-1.74a2.176 2.176 0 0 0-2.173 2.174v1.739c0 1.2.976 2.174 2.174 2.174zm5.881-.87H9.131a.436.436 0 0 1-.435-.434.435.435 0 0 0-.87 0c0 .719.585 1.304 1.305 1.304h1.533a1.512 1.512 0 0 0 .676-2.86l-2.29-1.144a.64.64 0 0 1 .285-1.213h1.535c.24 0 .434.195.434.434a.435.435 0 0 0 .87 0c0-.719-.585-1.304-1.304-1.304H9.336a1.512 1.512 0 0 0-.676 2.86l2.29 1.144a.64.64 0 0 1-.285 1.213zm4.141.573a.435.435 0 0 0 .825 0l1.739-5.218a.435.435 0 0 0-.824-.275l-1.327 3.98-1.327-3.98a.434.434 0 1 0-.825.276l1.74 5.217z" fill="#2DAFE5"/><path d="M18.696 7.826H17.39V.435A.435.435 0 0 0 16.957 0H7.39c-.02 0-.037.009-.056.011a.44.44 0 0 0-.251.116L2.736 4.475a.44.44 0 0 0-.116.252c-.003.02-.011.036-.011.056v3.043H1.304a.435.435 0 0 0-.434.435v8.695c0 .24.194.435.434.435H2.61v2.174c0 .24.195.435.435.435h13.913c.24 0 .434-.195.434-.435v-2.174h1.305c.24 0 .434-.194.434-.434V8.26a.435.435 0 0 0-.434-.435zM6.956 1.484v2.864H4.094l2.864-2.864zM3.479 5.217h3.913c.24 0 .435-.194.435-.434V.87h8.696v6.956H3.478V5.217zM16.522 19.13H3.478v-1.739h13.044v1.74zm1.739-2.608H1.739V8.696h16.522v7.826z" fill="#2DAFE5"/></svg>