<svg width="18" height="18" fill="none" xmlns="http://www.w3.org/2000/svg"><path d="M15.364 2.636A8.936 8.936 0 0 0 9 0a8.936 8.936 0 0 0-6.364 2.636A8.936 8.936 0 0 0 0 9a8.94 8.94 0 0 0 2.636 6.364A8.936 8.936 0 0 0 9 18a8.936 8.936 0 0 0 6.364-2.636A8.936 8.936 0 0 0 18 9a8.936 8.936 0 0 0-2.636-6.364zM14.64 14.64A7.926 7.926 0 0 1 9 16.977a7.926 7.926 0 0 1-5.64-2.337C.25 11.53.25 6.47 3.36 3.36A7.926 7.926 0 0 1 9 1.023c2.129 0 4.133.83 5.64 2.337 3.11 3.11 3.11 8.17 0 11.28z" fill="#EB5757"/><path d="M12.966 5.034a.51.51 0 0 0-.724 0L9 8.276 5.757 5.034a.51.51 0 0 0-.723 0c-.2.2-.2.523 0 .723L8.276 9l-3.242 3.242a.515.515 0 1 0 .36.875.5.5 0 0 0 .36-.151l3.242-3.243 3.242 3.243a.515.515 0 0 0 .36.151.492.492 0 0 0 .36-.151.51.51 0 0 0 0-.724L9.723 9l3.243-3.243c.2-.2.2-.522 0-.723z" fill="#EB5757"/></svg>