<svg width="20" height="20" fill="none" xmlns="http://www.w3.org/2000/svg"><g clip-path="url(#clip0)" fill="#fff"><path d="M15.806 12.39c-.41-.427-.903-.655-1.427-.655-.519 0-1.017.224-1.444.65l-1.333 1.33c-.11-.059-.22-.114-.325-.169a5.39 5.39 0 0 1-.418-.223c-1.25-.794-2.385-1.828-3.474-3.166-.528-.667-.882-1.229-1.14-1.799.346-.316.667-.645.98-.962.118-.118.236-.24.354-.359.886-.886.886-2.034 0-2.92L6.427 2.963a18.578 18.578 0 0 1-.393-.401c-.253-.262-.52-.532-.794-.785-.409-.405-.899-.62-1.414-.62-.515 0-1.013.215-1.435.62l-.008.008L.948 3.234a3.088 3.088 0 0 0-.916 1.963c-.102 1.232.261 2.38.54 3.132.684 1.845 1.705 3.554 3.229 5.386a19.863 19.863 0 0 0 6.614 5.18c.971.46 2.267 1.004 3.715 1.097.089.004.182.008.266.008.975 0 1.794-.35 2.436-1.047.004-.008.012-.012.017-.02.219-.267.472-.507.738-.765.182-.173.367-.354.549-.544.418-.435.637-.941.637-1.46 0-.524-.223-1.026-.65-1.449l-2.317-2.325zm1.511 4.444c-.004 0-.004.005 0 0-.165.178-.333.338-.515.515-.274.262-.553.537-.815.845-.426.456-.928.67-1.587.67-.063 0-.13 0-.194-.003-1.254-.08-2.419-.57-3.292-.988a18.751 18.751 0 0 1-6.23-4.88c-1.44-1.735-2.403-3.339-3.04-5.06-.393-1.052-.536-1.87-.473-2.643.042-.494.232-.904.583-1.254l1.44-1.44c.206-.194.425-.3.64-.3.267 0 .482.161.617.296l.013.013c.257.24.502.49.76.756.13.135.265.27.4.41l1.153 1.151c.447.448.447.862 0 1.309-.123.122-.24.245-.363.363-.355.363-.692.7-1.06 1.03-.008.008-.016.013-.02.021-.364.363-.296.718-.22.958l.012.038c.3.726.722 1.41 1.364 2.225l.004.004c1.165 1.435 2.393 2.554 3.748 3.41.173.11.35.2.52.284.152.075.295.147.418.223.016.009.033.021.05.03a.915.915 0 0 0 .418.105c.35 0 .57-.22.642-.29l1.443-1.444c.144-.144.372-.317.638-.317.261 0 .477.165.608.308l.008.008 2.326 2.326c.435.43.435.874.004 1.321zM10.808 4.757a5.357 5.357 0 0 1 2.913 1.512 5.381 5.381 0 0 1 1.511 2.912.566.566 0 0 0 .562.473.57.57 0 0 0 .566-.667 6.51 6.51 0 0 0-1.829-3.525 6.51 6.51 0 0 0-3.524-1.827.573.573 0 0 0-.659.464.564.564 0 0 0 .46.658zm9.169 4.066a10.711 10.711 0 0 0-3.01-5.804 10.71 10.71 0 0 0-5.804-3.01.568.568 0 0 0-.654.464.573.573 0 0 0 .468.659 9.59 9.59 0 0 1 5.188 2.689 9.563 9.563 0 0 1 2.689 5.187.566.566 0 0 0 .561.473c.034 0 .064-.004.097-.008a.56.56 0 0 0 .465-.65z"/></g><defs><clipPath id="clip0"><path fill="#fff" d="M0 0h20v20H0z"/></clipPath></defs></svg>