<svg width="20" height="20" fill="none" xmlns="http://www.w3.org/2000/svg"><g clip-path="url(#clip0)" fill="#2DAFE5"><path d="M14.543 1.983H1.126C.506 1.983 0 2.488 0 3.109v8.049c0 .62.505 1.126 1.126 1.126h.87v2.997a.472.472 0 0 0 .806.333l3.33-3.33H6.8a.472.472 0 1 0 0-.944l-.896.002a.47.47 0 0 0-.301.137L2.94 14.142s-.001-2.36-.003-2.372a.472.472 0 0 0-.47-.43h-1.34a.183.183 0 0 1-.183-.182v-8.05c0-.1.082-.182.182-.182h13.417c.1 0 .182.082.182.183v3.088a.472.472 0 0 0 .944 0V3.109c0-.621-.505-1.126-1.126-1.126z"/><path d="M18.874 7.754H9.483c-.621 0-1.127.505-1.127 1.126v5.49c0 .622.506 1.127 1.127 1.127h5.88l2.381 2.382a.472.472 0 0 0 .806-.334v-2.048h.324c.62 0 1.126-.505 1.126-1.126V8.88c0-.621-.505-1.126-1.126-1.126zm.183 6.617c0 .1-.082.182-.183.182h-.796a.472.472 0 0 0-.47.436l-.002 1.418-1.713-1.714-.006-.005a.47.47 0 0 0-.33-.135H9.484a.183.183 0 0 1-.183-.182V8.88c0-.1.082-.183.183-.183h9.39c.102 0 .183.082.183.183v5.49z"/><path d="M14.178 11.154a.472.472 0 1 0 0 .944.472.472 0 0 0 0-.944zm-2.05-6.052H3.54a.472.472 0 0 0 0 .944h8.587a.472.472 0 1 0 0-.944zM6.8 8.221H3.54a.472.472 0 0 0 0 .944H6.8a.472.472 0 1 0 0-.944zm5.186 2.933a.472.472 0 1 0 0 .944.472.472 0 0 0 0-.944zm4.384 0a.472.472 0 1 0 0 .944.472.472 0 0 0 0-.944z"/></g><defs><clipPath id="clip0"><path fill="#fff" d="M0 0h20v20H0z"/></clipPath></defs></svg>