<svg width="18" height="20" fill="none" xmlns="http://www.w3.org/2000/svg"><path d="M11.871 3.498H2.574c-.873 0-1.581.708-1.581 1.58V18.42c0 .872.708 1.581 1.58 1.581h9.298c.873 0 1.581-.709 1.581-1.581V5.079a1.587 1.587 0 0 0-1.58-1.581zm.471 14.917a.475.475 0 0 1-.475.475H2.57a.475.475 0 0 1-.476-.475V5.079c0-.262.213-.475.476-.475h9.297c.262 0 .475.213.475.475v13.336z" fill="#2DAFE5"/><path d="M15.426 0H6.13c-.873 0-1.581.709-1.581 1.581a.55.55 0 0 0 .553.553.55.55 0 0 0 .553-.553c0-.262.213-.475.475-.475h9.297c.262 0 .476.213.476.475v13.34a.475.475 0 0 1-.476.475.55.55 0 0 0-.553.553.55.55 0 0 0 .553.553c.873 0 1.581-.708 1.581-1.58V1.58A1.582 1.582 0 0 0 15.427 0z" fill="#2DAFE5"/></svg>