<svg width="20" height="20" fill="none" xmlns="http://www.w3.org/2000/svg"><path d="M7.995 11.19a1.536 1.536 0 0 0-1.027-.281c-.345-.005-.69.02-1.032.077v3.56h.755v-1.291c.086.006.173.006.259 0a1.5 1.5 0 0 0 1.095-.378c.212-.233.323-.54.31-.854a1.086 1.086 0 0 0-.36-.832zm-.927 1.464a.575.575 0 0 1-.123-.009l.023-.004c-.084.01-.17.01-.254 0v-1.082a1.22 1.22 0 0 1 .313-.032c.382 0 .596.2.596.528a.577.577 0 0 1-.555.599z" fill="#2DAFE5"/><path d="M13.636 0h-10a1.818 1.818 0 0 0-1.818 1.818v16.364c0 1.004.814 1.818 1.818 1.818h12.727a1.818 1.818 0 0 0 1.819-1.818V5l-4.546-5zm3.637 18.182a.91.91 0 0 1-.91.909H3.637a.91.91 0 0 1-.909-.91V1.819a.91.91 0 0 1 .91-.909h8.181v4.546a.91.91 0 0 0 .91.909h4.545v11.818zM12.727 5.455V.909h.455l4.09 4.546h-4.545z" fill="#2DAFE5"/><path d="M11.073 11.323a2.064 2.064 0 0 0-1.378-.414 6.343 6.343 0 0 0-1.031.077v3.56c.286.038.574.056.863.054a2.309 2.309 0 0 0 1.555-.455c.388-.382.592-.914.559-1.459a1.64 1.64 0 0 0-.568-1.363zm-.237 1.363c-.004.86-.454 1.264-1.14 1.26v-.005a1.335 1.335 0 0 1-.264 0v-2.368c.113-.024.23-.035.345-.032a1 1 0 0 1 1.06 1.145zm1.464 1.86h.764v-1.45h1.209v-.664h-1.21v-.823h1.296v-.668h-2.06v3.604z" fill="#2DAFE5"/></svg>