<svg width="38" height="40" fill="none" xmlns="http://www.w3.org/2000/svg"><path d="M11.008 26.337h22.04c2.5 0 4.538-2.039 4.538-4.538v-9.372c0-.033-.012-.066-.016-.099a.07.07 0 0 1 0-.008v-.004c-.003-.03-.013-.057-.02-.087l-.01-.028c-.004-.013-.005-.025-.011-.037-.009-.016-.009-.033-.017-.05a.431.431 0 0 1-.02-.043.268.268 0 0 0-.012-.028c-.01-.02-.022-.037-.032-.057l-.01-.019c-.008-.017-.016-.025-.025-.041-.008-.017-.024-.033-.032-.05-.016-.03-.05-.05-.066-.082-.008-.016-.025-.024-.033-.04-.008-.017-.025-.025-.033-.034l-.004-.003c-.024-.025-.047-.055-.078-.07-.017-.009-.033-.025-.05-.034-.016-.008-.024-.016-.04-.024l-.005-.002c-.032-.017-.062-.04-.094-.056a7.552 7.552 0 0 0-.05-.024l-.049-.025c-.016-.008-.033-.008-.05-.016a.153.153 0 0 0-.057-.017c-.028 0-.054-.014-.082-.016h-.025c-.008 0-.016-.009-.032-.009L12.15 8.045a4 4 0 0 1-3.453-3.962v-.41c0-.037 0-.074-.006-.104a.22.22 0 0 1-.002-.02c-.002-.015-.008-.033-.01-.047l-.004-.022a1.506 1.506 0 0 0-.01-.06l-.003-.015-.01-.041c-.005-.013-.006-.027-.01-.04l-.014-.039-.009-.032-.01-.033a.23.23 0 0 0-.02-.038l-.014-.023a.253.253 0 0 0-.024-.047c-.01-.017-.023-.032-.034-.049a.153.153 0 0 1-.009-.016c-.008-.016-.016-.024-.025-.04a.475.475 0 0 0-.058-.074l-.049-.05-.024-.025-.025-.024c-.02-.018-.046-.03-.066-.05-.009-.009-.018-.015-.026-.022l-.047-.035a.717.717 0 0 0-.029-.018l-.025-.015-.026-.015c-.03-.014-.065-.028-.093-.043L1.957.088A1.108 1.108 0 0 0 .502.68a1.108 1.108 0 0 0 .592 1.455l2.931 1.237A4 4 0 0 1 6.47 7.057v21.664c0 1.45.685 2.744 1.75 3.574.9.703 1.563 2.083 1.563 3.225a4.486 4.486 0 0 0 4.48 4.48 4.49 4.49 0 0 0 4.48-4.48c0-1.044.712-2.261 1.756-2.261h5.237c1.047 0 1.755 1.213 1.755 2.26A4.486 4.486 0 0 0 31.97 40a4.49 4.49 0 0 0 4.48-4.48 4.49 4.49 0 0 0-4.48-4.48H11.008a2.32 2.32 0 0 1-2.318-2.32v-.58c0-1.075 1.242-1.804 2.318-1.804zm5.524 9.174a2.264 2.264 0 0 1-2.26 2.261 2.27 2.27 0 0 1-2.26-2.26 2.27 2.27 0 0 1 2.26-2.261 2.265 2.265 0 0 1 2.26 2.26zm17.708 0c0 1.25-1.02 2.261-2.26 2.261a2.27 2.27 0 0 1-2.261-2.26 2.27 2.27 0 0 1 2.26-2.261 2.265 2.265 0 0 1 2.261 2.26zm-1.192-11.394h-22.04A2.32 2.32 0 0 1 8.69 21.8V10.216c0-.217.192-.385.407-.355l22.815 3.143a4 4 0 0 1 3.455 3.962v4.825a2.323 2.323 0 0 1-2.319 2.326z" fill="#fff"/></svg>