<svg width="20" height="20" fill="none" xmlns="http://www.w3.org/2000/svg"><path d="M16.291 0H.204v20h19.592V3.504L16.29 0zM14.49.816v5.715H4.694V.816h9.796zM3.878 19.184v-7.755h11.836v7.755H3.878zm15.102 0h-2.45v-8.572H3.062v8.572h-2.04V.816h2.857v6.53h11.428V.817h.648l3.026 3.026v15.342z" fill="#2DAFE5"/><path d="M5.51 13.47h2.857a.408.408 0 1 0 0-.817H5.51a.408.408 0 1 0 0 .816zm4.082.816H5.51a.408.408 0 1 0 0 .816h4.082a.408.408 0 1 0 0-.816zm.935.118a.426.426 0 0 0-.119.29c0 .106.045.212.119.29a.42.42 0 0 0 .29.118.43.43 0 0 0 .29-.119.43.43 0 0 0 .118-.29.429.429 0 0 0-.119-.29.427.427 0 0 0-.58 0zm3.147-12.771h-2.45v4.081h2.45V1.633zm-.817 3.265h-.816V2.45h.816V4.9z" fill="#2DAFE5"/></svg>