<svg width="24" height="24" fill="none" xmlns="http://www.w3.org/2000/svg"><path d="M3.293 22.009c0 .428.335.763.763.763a.754.754 0 0 0 .763-.763V6.902a2.896 2.896 0 0 0 2.14-2.79 2.886 2.886 0 0 0-2.885-2.884A2.87 2.87 0 0 0 1.21 4.11a2.88 2.88 0 0 0 2.103 2.772V22.01h-.02zM2.698 4.11c0-.744.614-1.358 1.358-1.358.744 0 1.358.614 1.358 1.358 0 .744-.614 1.358-1.358 1.358A1.366 1.366 0 0 1 2.698 4.11zm9.283-2.882a.754.754 0 0 0-.762.762v7.851a2.88 2.88 0 0 0 0 5.545v6.642c0 .428.334.762.762.762a.754.754 0 0 0 .763-.762v-6.642a2.897 2.897 0 0 0 2.14-2.791c0-1.34-.912-2.456-2.14-2.79V1.99a.754.754 0 0 0-.763-.762zm1.396 11.386c0 .744-.614 1.358-1.359 1.358a1.366 1.366 0 0 1-1.358-1.358c0-.745.614-1.359 1.358-1.359.745 0 1.359.596 1.359 1.359zm7.293 4.502V1.99a.754.754 0 0 0-.763-.762.754.754 0 0 0-.763.762v15.126a2.874 2.874 0 0 0-2.12 2.772 2.886 2.886 0 0 0 2.883 2.884c1.6 0 2.884-1.284 2.884-2.884.018-1.32-.893-2.437-2.121-2.772zm-.745 4.13a1.366 1.366 0 0 1-1.358-1.358c0-.744.614-1.358 1.358-1.358.745 0 1.359.614 1.359 1.358 0 .744-.614 1.358-1.358 1.358z" fill="#2DAFE5"/></svg>