<svg width="20" height="16" fill="none" xmlns="http://www.w3.org/2000/svg"><path d="M17.558.39H2.446A2.448 2.448 0 0 0 0 2.835v10.33a2.448 2.448 0 0 0 2.446 2.445h15.108A2.448 2.448 0 0 0 20 13.164V2.84A2.445 2.445 0 0 0 17.558.39zm1.329 12.774a1.33 1.33 0 0 1-1.329 1.329H2.446a1.33 1.33 0 0 1-1.329-1.329V2.84a1.33 1.33 0 0 1 1.329-1.328h15.108a1.33 1.33 0 0 1 1.329 1.328v10.325h.004z" fill="#2DAFE5"/><path d="M12.613 7.871l4.892-4.386a.561.561 0 0 0 .041-.79.561.561 0 0 0-.79-.042L10.01 8.707 8.694 7.532c-.004-.004-.008-.008-.008-.012a.827.827 0 0 0-.09-.079L3.24 2.65a.558.558 0 0 0-.79.046.558.558 0 0 0 .045.79l4.95 4.424-4.929 4.614a.56.56 0 0 0 .766.82l5.003-4.681 1.357 1.212a.558.558 0 0 0 .745-.004l1.394-1.25 4.975 4.726a.558.558 0 0 0 .77-.811l-4.913-4.664z" fill="#2DAFE5"/></svg>