<svg width="20" height="20" fill="none" xmlns="http://www.w3.org/2000/svg"><path d="M19.593 0H.407A.407.407 0 0 0 0 .407v19.186c0 .225.182.407.407.407h16.308a.407.407 0 0 0 0-.814H.814V.814h18.372v18.779a.407.407 0 0 0 .814 0V.407A.407.407 0 0 0 19.593 0z" fill="#2DAFE5"/><path d="M4.464 4.234c-.86 0-1.56.7-1.56 1.56 0 .86.7 1.56 1.56 1.56.86 0 1.56-.7 1.56-1.56 0-.86-.7-1.56-1.56-1.56zm0 2.306a.747.747 0 0 1 0-1.492.747.747 0 0 1 0 1.492zm12.278-1.153H7.246a.407.407 0 0 0 0 .814h9.496a.407.407 0 0 0 0-.814zM4.464 8.44a.407.407 0 0 0 0 .814.747.747 0 1 1-.746.746.407.407 0 0 0-.814 0c0 .86.7 1.56 1.56 1.56.86 0 1.56-.7 1.56-1.56 0-.86-.7-1.56-1.56-1.56zm12.278 1.153H7.246a.407.407 0 0 0 0 .814h9.496a.407.407 0 0 0 0-.814zM4.464 12.646c-.86 0-1.56.7-1.56 1.56 0 .86.7 1.56 1.56 1.56.86 0 1.56-.7 1.56-1.56 0-.86-.7-1.56-1.56-1.56zm0 2.306a.747.747 0 1 1 .002-1.494.747.747 0 0 1-.002 1.494zm12.278-1.153H7.246a.407.407 0 0 0 0 .814h9.496a.407.407 0 0 0 0-.814z" fill="#2DAFE5"/></svg>