<svg width="30" height="22" fill="none" xmlns="http://www.w3.org/2000/svg"><path d="M1.053 14.506V1.742c0-.71.575-1.284 1.284-1.284h12.757c.71 0 1.284.575 1.284 1.284v12.764a.428.428 0 0 1-.428.428H1.48a.428.428 0 0 1-.427-.428zm10.302 4.373a2.664 2.664 0 1 1-5.328 0 2.664 2.664 0 0 1 5.328 0zm-1.332 0a1.332 1.332 0 1 0-2.664 0 1.332 1.332 0 0 0 2.664 0zm-3.626-2.664H.428a.428.428 0 0 0-.428.428v1.299c0 .236.192.428.428.428h4.784a3.514 3.514 0 0 1 1.185-2.155zm18.894 2.664a2.664 2.664 0 1 1-5.327 0 2.664 2.664 0 0 1 5.327 0zm-1.332 0a1.332 1.332 0 1 0-2.663 0 1.332 1.332 0 0 0 2.663 0zM30 16.643v1.299a.428.428 0 0 1-.428.428h-3.466a3.522 3.522 0 0 0-3.479-3.011 3.522 3.522 0 0 0-3.478 3.01h-6.98a3.514 3.514 0 0 0-1.184-2.154h6.617V3.97c0-.473.384-.856.857-.856H22.5c1.138 0 2.202.565 2.838 1.508l2.606 3.86c.382.565.586 1.233.586 1.916v5.817h1.042c.236 0 .428.192.428.428zM25.657 8.58l-2.083-2.96a.428.428 0 0 0-.35-.182h-3.25a.428.428 0 0 0-.428.428v2.96c0 .237.192.429.428.429h5.333c.347 0 .55-.391.35-.675z" fill="#fff"/></svg>