<svg width="20" height="20" fill="none" xmlns="http://www.w3.org/2000/svg"><path d="M19.815 9.069L10.403.652a.262.262 0 0 0-.053-.04.557.557 0 0 0-.753-.013L.185 9.015a.557.557 0 1 0 .74.83L2.622 8.33v9.815a1.4 1.4 0 0 0 1.398 1.399h2.97c.724 0 1.312-.588 1.312-1.312v-4.99c0-.111.091-.202.202-.202h2.999c.11 0 .201.09.201.202v4.99c0 .724.589 1.312 1.313 1.312h2.97c.781 0 1.398-.77 1.398-1.752v-9.41L19.08 9.9a.556.556 0 0 0 .786-.045.566.566 0 0 0-.05-.786zm-3.546 2.744v5.968c0 .4-.197.642-.287.642h-2.97a.202.202 0 0 1-.202-.201V13.24c0-.724-.588-1.312-1.312-1.312h-3c-.723 0-1.311.588-1.311 1.312v4.99c0 .11-.09.201-.202.201h-2.97a.289.289 0 0 1-.288-.288V7.333l6.245-5.578 6.298 5.631v4.427z" fill="#2DAFE5"/></svg>