<svg width="20" height="20" fill="none" xmlns="http://www.w3.org/2000/svg"><path d="M18.125 5.625h-2.5v-5A.625.625 0 0 0 15 0H5a.625.625 0 0 0-.625.625v5h-2.5c-.69 0-1.25.56-1.25 1.25v6.25c0 .69.56 1.25 1.25 1.25h2.5v5c0 .345.28.625.625.625h10c.346 0 .625-.28.625-.625v-5h2.5c.69 0 1.25-.56 1.25-1.25v-6.25c0-.69-.56-1.25-1.25-1.25zM5.625 1.25h8.75v4.375h-8.75V1.25zm8.75 17.5h-8.75V12.5h8.75v6.25zm3.75-5.625h-2.5v-1.25A.625.625 0 0 0 15 11.25H5a.625.625 0 0 0-.625.625v1.25h-2.5v-6.25h16.25v6.25z" fill="#2DAFE5"/><path d="M4.375 9.375h11.25a.625.625 0 1 0 0-1.25H4.375a.625.625 0 1 0 0 1.25zM7.188 17.5h5.625a.313.313 0 0 0 0-.625H7.186a.313.313 0 0 0 0 .625zm0-1.875h5.625a.313.313 0 0 0 0-.625H7.186a.313.313 0 0 0 0 .625zm0-1.875h5.625a.313.313 0 0 0 0-.625H7.186a.313.313 0 0 0 0 .625z" fill="#2DAFE5"/></svg>