<svg width="30" height="30" fill="none" xmlns="http://www.w3.org/2000/svg"><g clip-path="url(#clip0)" fill="#2DAFE5"><path d="M5.214 3.555L6.88 5.221a12.617 12.617 0 0 1 6.924-2.865V0a14.957 14.957 0 0 0-8.59 3.555zM2.355 16.151H0a14.957 14.957 0 0 0 3.555 8.59l1.666-1.667a12.615 12.615 0 0 1-2.865-6.923zM16.151 0v2.356c6.455.591 11.502 6.011 11.502 12.621S22.606 27.007 16.15 27.6v2.356C23.905 29.357 30 22.885 30 14.977 30 7.07 23.905.598 16.151 0zM5.214 26.4a14.954 14.954 0 0 0 8.59 3.555v-2.356a12.615 12.615 0 0 1-6.924-2.865L5.214 26.4zM3.555 5.214A14.955 14.955 0 0 0 0 13.804h2.356A12.614 12.614 0 0 1 5.222 6.88L3.555 5.214z"/><path d="M15 16.151a1.173 1.173 0 0 1-1.174-1.174V7.42a1.173 1.173 0 1 1 2.347 0v7.557c0 .649-.525 1.174-1.173 1.174z"/><path d="M13.826 14.977c0-.648.525-1.173 1.174-1.173h7.557a1.173 1.173 0 1 1 0 2.347H15a1.174 1.174 0 0 1-1.174-1.174z"/></g><defs><clipPath id="clip0"><path fill="#fff" d="M0 0h30v29.955H0z"/></clipPath></defs></svg>