<svg width="20" height="14" fill="none" xmlns="http://www.w3.org/2000/svg"><path d="M9.968 4.322v8.242l6.561-1.245V7.303c0-.168.147-.298.314-.28l.807.126c.142.016.25.136.25.28v4.664a.281.281 0 0 1-.223.275l-7.183 1.544a2.532 2.532 0 0 1-1.053.003L2.335 12.42a.281.281 0 0 1-.223-.268l-.123-4.737a.281.281 0 0 1 .257-.288l6.036-.53a.281.281 0 0 0 .235-.173l.91-2.209c.117-.285.54-.2.54.107zM1.92 1.624L.027 5.673a.281.281 0 0 0 .283.399l7.113-.719c.1-.01.188-.073.229-.166L9.941.031 2.125 1.467a.281.281 0 0 0-.204.157zM9.941.031l2.421 5.317a.281.281 0 0 0 .234.164l7.1.571a.281.281 0 0 0 .278-.397l-1.851-4.06a.281.281 0 0 0-.207-.16L9.941.032z" fill="#E15E35"/></svg>