<svg width="20" height="20" fill="none" xmlns="http://www.w3.org/2000/svg"><path d="M19.844 17.078L16.704 4.11a.469.469 0 0 0-.454-.359h-1.563a.46.46 0 0 0-.468.469v7.343a.46.46 0 0 0 .469.47h2.968l1.125 4.687H1.11V4.687h11.079v10.47a.46.46 0 0 0 .468.468.46.46 0 0 0 .469-.469V4.22a.46.46 0 0 0-.469-.469H.641a.46.46 0 0 0-.47.469v12.968c0 .22.157.407.36.454.031 0 .063.015.094.015h18.766a.5.5 0 0 0 .375-.172c.093-.109.109-.265.078-.406zm-4.688-5.984V4.688h.719l1.547 6.406h-2.266z" fill="#2DAFE5"/><path d="M16.25 19.375a1.563 1.563 0 1 0 0-3.125 1.563 1.563 0 0 0 0 3.125z" fill="#2DAFE5"/><path d="M16.25 19.844a2.027 2.027 0 0 1-2.031-2.032c0-1.125.906-2.03 2.031-2.03s2.031.905 2.031 2.03a2.027 2.027 0 0 1-2.031 2.032zm0-3.125c-.61 0-1.094.484-1.094 1.093 0 .61.485 1.094 1.094 1.094.61 0 1.094-.484 1.094-1.093 0-.61-.485-1.094-1.094-1.094zM4.531 19.375a1.563 1.563 0 1 0 0-3.125 1.563 1.563 0 0 0 0 3.125z" fill="#2DAFE5"/><path d="M4.531 19.844A2.027 2.027 0 0 1 2.5 17.812c0-1.125.906-2.03 2.031-2.03s2.032.905 2.032 2.03a2.027 2.027 0 0 1-2.032 2.032zm0-3.125c-.61 0-1.093.484-1.093 1.093 0 .61.484 1.094 1.093 1.094.61 0 1.094-.484 1.094-1.093 0-.61-.484-1.094-1.094-1.094z" fill="#2DAFE5"/></svg>