<svg width="20" height="18" fill="none" xmlns="http://www.w3.org/2000/svg"><path d="M10.663 12.166h5.332c.2 0 .333-.133.333-.334V8.833c0-.2-.133-.333-.333-.333h-5.332c-.2 0-.333.134-.333.333v3c0 .2.133.333.333.333zm.333-3h4.666V11.5h-4.666V9.167zm-9.33-1.332h2.666c.2 0 .333-.134.333-.334s-.133-.333-.333-.333H1.666c-.2 0-.333.134-.333.333 0 .2.133.334.333.334zm3.999 0H8.33c.2 0 .333-.134.333-.334s-.133-.333-.333-.333H5.665c-.2 0-.333.134-.333.333 0 .2.133.334.333.334zM1.666 9.167h4.332c.2 0 .333-.134.333-.334S6.198 8.5 5.998 8.5H1.666c-.2 0-.333.134-.333.333 0 .2.133.334.333.334zM8.33 8.5h-1c-.2 0-.332.134-.332.333 0 .2.133.334.333.334h1c.2 0 .333-.134.333-.334S8.53 8.5 8.33 8.5z" fill="#2DAFE5"/><path d="M19.694 4.368a1.241 1.241 0 0 0-.9-.5l-.8-.097V2.17c0-.733-.6-1.333-1.332-1.333H1.332A1.335 1.335 0 0 0 0 2.169v10.663c0 .602.404 1.114.955 1.278a1.297 1.297 0 0 0 1.178 1.321l15.395 1.733h.133c.667 0 1.266-.5 1.333-1.133l1-10.696c.033-.334-.067-.7-.3-.967zM.666 3.168h16.662v2H.666v-2zm.667-1.666H16.66c.367 0 .667.3.667.667v.333H.666V2.17c0-.367.3-.667.667-.667zm-.667 11.33V5.834h16.662v6.998c0 .367-.3.667-.666.667H1.333a.668.668 0 0 1-.667-.667zm18.661-7.63l-1 10.696a.672.672 0 0 1-.733.6L2.233 14.765a.674.674 0 0 1-.6-.6H16.66c.733 0 1.333-.6 1.333-1.333v-8.43l.767.066c.166 0 .333.1.433.233.1.134.167.334.133.5z" fill="#2DAFE5"/></svg>