<svg width="20" height="20" fill="none" xmlns="http://www.w3.org/2000/svg"><g clip-path="url(#clip0)" fill="#2DAFE5"><path d="M16.875 1.875h-2.5V1.25c0-.375-.25-.625-.625-.625s-.625.25-.625.625v.625h-6.25V1.25c0-.375-.25-.625-.625-.625s-.625.25-.625.625v.625h-2.5A3.095 3.095 0 0 0 0 5v11.25a3.095 3.095 0 0 0 3.125 3.125h13.75A3.095 3.095 0 0 0 20 16.25V5a3.095 3.095 0 0 0-3.125-3.125zM1.25 5c0-1 .875-1.875 1.875-1.875h2.5v.625c0 .375.25.625.625.625s.625-.25.625-.625v-.625h6.25v.625c0 .375.25.625.625.625s.625-.25.625-.625v-.625h2.5c1 0 1.875.875 1.875 1.875v1.875H1.25V5zm17.5 11.25c0 1-.875 1.875-1.875 1.875H3.125c-1 0-1.875-.875-1.875-1.875V8.125h17.5v8.125z"/><path d="M4.375 16.25c.375 0 .625-.125.875-.375s.375-.625.375-.875-.125-.625-.375-.875c-.5-.5-1.25-.5-1.75 0-.25.25-.375.5-.375.875 0 .25.125.625.375.875s.5.375.875.375zm0-3.75c.375 0 .625-.125.875-.375s.375-.625.375-.875-.125-.625-.375-.875c-.5-.5-1.25-.5-1.75 0-.25.25-.375.5-.375.875s.125.625.375.875.5.375.875.375zm3.75 3.75c.375 0 .625-.125.875-.375s.375-.625.375-.875-.125-.625-.375-.875c-.5-.5-1.25-.5-1.75 0a1.35 1.35 0 0 0-.375.875c0 .25.125.625.375.875s.5.375.875.375zm0-3.75c.375 0 .625-.125.875-.375s.375-.625.375-.875-.125-.625-.375-.875c-.5-.5-1.25-.5-1.75 0a1.35 1.35 0 0 0-.375.875c0 .25.125.625.375.875s.5.375.875.375zm3.75 3.75c.375 0 .625-.125.875-.375s.375-.5.375-.875-.125-.625-.375-.875c-.5-.5-1.25-.5-1.75 0a1.35 1.35 0 0 0-.375.875c0 .25.125.625.375.875s.5.375.875.375zm0-3.75c.375 0 .625-.125.875-.375s.375-.5.375-.875c0-.25-.125-.625-.375-.875-.5-.5-1.25-.5-1.75 0a1.35 1.35 0 0 0-.375.875c0 .25.125.625.375.875s.5.375.875.375zm3.75 3.75c.375 0 .625-.125.875-.375s.375-.625.375-.875-.125-.625-.375-.875c-.5-.5-1.25-.5-1.75 0-.25.25-.375.5-.375.875 0 .25.125.625.375.875s.5.375.875.375zm0-3.75c.375 0 .625-.125.875-.375s.375-.5.375-.875c0-.25-.125-.625-.375-.875-.5-.5-1.25-.5-1.75 0a1.35 1.35 0 0 0-.375.875c0 .25.125.625.375.875s.5.375.875.375z"/></g><defs><clipPath id="clip0"><path fill="#fff" d="M0 0h20v20H0z"/></clipPath></defs></svg>