<svg width="20" height="20" fill="none" xmlns="http://www.w3.org/2000/svg"><path d="M17.071 2.929A9.935 9.935 0 0 0 10 0a9.935 9.935 0 0 0-7.071 2.929A9.935 9.935 0 0 0 0 10a9.935 9.935 0 0 0 2.929 7.071A9.935 9.935 0 0 0 10 20a9.935 9.935 0 0 0 7.071-2.929A9.935 9.935 0 0 0 20 10a9.935 9.935 0 0 0-2.929-7.071zM10 18.829c-4.868 0-8.828-3.961-8.828-8.829S5.132 1.172 10 1.172c4.868 0 8.828 3.96 8.828 8.828 0 4.868-3.96 8.828-8.828 8.828z" fill="#219653"/><path d="M14.777 6.791a.586.586 0 0 0-.828 0l-5.174 5.175L6.05 9.242a.586.586 0 0 0-.829.829l3.138 3.138a.584.584 0 0 0 .829 0l5.588-5.589a.586.586 0 0 0 0-.829z" fill="#219653"/></svg>