<svg width="16" height="16" fill="none" xmlns="http://www.w3.org/2000/svg"><path d="M7.492 7.219a.509.509 0 0 0-.72-.72L4.081 9.191a2.373 2.373 0 0 0-.707 1.699c0 .645.248 1.24.707 1.7a2.395 2.395 0 0 0 3.398 0l6.078-6.078a3.33 3.33 0 0 0 .98-2.37 3.33 3.33 0 0 0-.98-2.368 3.354 3.354 0 0 0-4.75 0L2.74 7.839a4.278 4.278 0 0 0-1.265 3.05 4.26 4.26 0 0 0 1.265 3.052 4.278 4.278 0 0 0 3.051 1.265 4.257 4.257 0 0 0 3.052-1.265l2.691-2.691a.51.51 0 0 0-.72-.72l-2.69 2.692a3.288 3.288 0 0 1-2.333.967c-.88 0-1.711-.347-2.331-.967a3.284 3.284 0 0 1-.968-2.332c0-.88.347-1.712.968-2.332l6.065-6.065a2.338 2.338 0 0 1 3.3 0 2.338 2.338 0 0 1 0 3.3L6.746 11.87a1.4 1.4 0 0 1-1.96 0 1.38 1.38 0 0 1 0-1.96l2.707-2.69z" fill="#2DAFE5"/></svg>