<svg width="20" height="20" fill="none" xmlns="http://www.w3.org/2000/svg"><path d="M10.755 3.019H.566A.556.556 0 0 1 0 2.453c0-.321.245-.566.566-.566h10.189c.32 0 .566.245.566.566 0 .32-.245.566-.566.566zm0 7.17H.566A.556.556 0 0 1 0 9.623c0-.321.245-.566.566-.566h10.189c.32 0 .566.245.566.566 0 .32-.245.566-.566.566zm0 7.169H.566A.556.556 0 0 1 0 16.792c0-.32.245-.566.566-.566h10.189c.32 0 .566.246.566.566a.556.556 0 0 1-.566.566zm6.792 1.887a2.448 2.448 0 0 1-2.453-2.453 2.448 2.448 0 0 1 2.453-2.452A2.448 2.448 0 0 1 20 16.792a2.448 2.448 0 0 1-2.453 2.453zm0-3.773c-.736 0-1.32.585-1.32 1.32 0 .736.584 1.321 1.32 1.321.736 0 1.32-.585 1.32-1.32 0-.736-.584-1.321-1.32-1.321zm0-3.396a2.448 2.448 0 0 1-2.453-2.453 2.448 2.448 0 0 1 2.453-2.453A2.448 2.448 0 0 1 20 9.623a2.448 2.448 0 0 1-2.453 2.453zm0-3.774c-.736 0-1.32.585-1.32 1.32 0 .737.584 1.322 1.32 1.322.736 0 1.32-.585 1.32-1.321s-.584-1.321-1.32-1.321zm0-3.396a2.448 2.448 0 0 1-2.453-2.453A2.448 2.448 0 0 1 17.547 0 2.448 2.448 0 0 1 20 2.453a2.448 2.448 0 0 1-2.453 2.453zm0-3.774c-.736 0-1.32.585-1.32 1.32 0 .737.584 1.322 1.32 1.322.736 0 1.32-.585 1.32-1.321s-.584-1.32-1.32-1.32z" fill="#2DAFE5"/></svg>