<svg width="20" height="20" fill="none" xmlns="http://www.w3.org/2000/svg"><path d="M19.51 2.49A1.605 1.605 0 0 0 18.333 2H1.667c-.459 0-.85.163-1.177.49-.327.326-.49.718-.49 1.177v12.666c0 .459.163.851.49 1.177.326.327.718.49 1.177.49h16.666c.459 0 .85-.163 1.177-.49.327-.326.49-.718.49-1.177V3.667c0-.459-.163-.85-.49-1.177zm-.844 13.844a.32.32 0 0 1-.098.234.32.32 0 0 1-.235.099H1.667a.32.32 0 0 1-.235-.1.32.32 0 0 1-.099-.234V10h17.334v6.334zm0-10.334H1.334V3.667a.32.32 0 0 1 .1-.235.321.321 0 0 1 .234-.099h16.666a.32.32 0 0 1 .235.1.32.32 0 0 1 .098.234V6z" fill="#EB5757"/><path d="M5.334 14H2.667v1.333h2.667V14zm5.333 0h-4v1.333h4V14z" fill="#EB5757"/></svg>