<svg width="20" height="14" fill="none" xmlns="http://www.w3.org/2000/svg"><path d="M9.968 4.33v8.25l6.561-1.246v-4.02c0-.168.147-.299.314-.28l.807.125c.142.017.25.137.25.28v4.67a.282.282 0 0 1-.223.276l-7.182 1.546a2.53 2.53 0 0 1-1.054.002l-7.105-1.496a.282.282 0 0 1-.224-.268L1.99 7.425a.281.281 0 0 1 .257-.288l6.036-.531a.281.281 0 0 0 .235-.173l.91-2.211c.117-.285.541-.201.541.107zm-8.047-2.7L.027 5.682a.282.282 0 0 0 .283.4l7.113-.72c.1-.01.188-.074.23-.166L9.94.034 2.125 1.471a.281.281 0 0 0-.204.158zM9.941.034l2.422 5.323a.281.281 0 0 0 .233.164l7.1.572a.282.282 0 0 0 .278-.398l-1.851-4.063a.281.281 0 0 0-.206-.16L9.94.033z" fill="#4F4F4F"/></svg>