<svg width="20" height="20" fill="none" xmlns="http://www.w3.org/2000/svg"><path d="M16.667 3.531V1.667A1.669 1.669 0 0 0 15 0H1.667A1.669 1.669 0 0 0 0 1.667V9a1.663 1.663 0 0 0 1.495 1.65l1.253 3.252a1.667 1.667 0 0 0 2.154.956l7.825-3.014a4.819 4.819 0 0 0 .415 4.278l.191.307v3.238c0 .184.15.333.334.333h6c.184 0 .333-.15.333-.333V8.664a4.362 4.362 0 0 0-1.277-3.073l-2.056-2.06zm0 1.994l1.011 2.626a1 1 0 0 1-.574 1.292l-.578.224c.092-.21.14-.438.14-.667V5.525zM.667 9V1.667a1 1 0 0 1 1-1H15a1 1 0 0 1 1 1v2.118h-.003l.003.008V9c-.003.058-.01.116-.023.173l-3.053-3.054a1.778 1.778 0 0 0-2.567 2.46L11.66 10H1.667a1 1 0 0 1-1-1zm4.27 1.667l-2.37.912-.351-.912h2.721zm-.275 3.569a1 1 0 0 1-1.292-.574L2.807 12.2l3.98-1.533v-.002h5.483l.433.472-8.04 3.099zm14.671 5.097H14v-2.666h5.333v2.666zm0-3.333h-5.481l-.145-.231a4.157 4.157 0 0 1-.084-4.269.333.333 0 0 0-.044-.39l-2.732-2.98a1.112 1.112 0 0 1 1.606-1.538l5.311 5.31.472-.471-1.234-1.233.342-.134a1.667 1.667 0 0 0 .956-2.153l-1.128-2.93 1.08 1.082a3.689 3.689 0 0 1 1.081 2.6V16z" fill="#2DAFE5"/><path d="M3.8 4.667a.867.867 0 0 0 .867-.867V2.2a.867.867 0 0 0-.867-.867H2.2a.867.867 0 0 0-.867.867v1.6c0 .479.389.867.867.867h1.6zM2 3.8v-.467h.667v-.666H2V2.2c0-.11.09-.2.2-.2h1.6c.11 0 .2.09.2.2v.467h-.667v.666H4V3.8a.2.2 0 0 1-.2.2H2.2a.2.2 0 0 1-.2-.2zm-.333 1.867H3v.666H1.667v-.666zm0 2H3v.666H1.667v-.666zm6 0H9v.666H7.667v-.666zm-4-2H5v.666H3.667v-.666zm2 0H7v.666H5.667v-.666zm2 0H9v.666H7.667v-.666zm6.333-4h.667v1H14v-1zm-1.334 0h.667v1h-.667v-1zm-1.332 0H12v1h-.666v-1zm-1.334 0h.667v1H10v-1zm4.666 15.666h.667V18h-.667v-.667z" fill="#2DAFE5"/></svg>