<svg width="20" height="14" fill="none" xmlns="http://www.w3.org/2000/svg"><path d="M19.375 1.375H17.5a.625.625 0 0 0-.444.181l-1.062 1.069H15V2C15 .964 14.16.125 13.125.125H1.875C.839.125 0 .965 0 2v10c0 1.036.84 1.875 1.875 1.875h11.25c1.036 0 1.875-.84 1.875-1.875v-.625h.994l1.069 1.069c.116.115.273.18.437.181h1.875c.345 0 .625-.28.625-.625V2a.625.625 0 0 0-.625-.625zm-.625 10h-.994l-1.069-1.069a.625.625 0 0 0-.437-.181h-1.875a.625.625 0 0 0-.625.625V12c0 .345-.28.625-.625.625H1.875A.625.625 0 0 1 1.25 12V2c0-.345.28-.625.625-.625h11.25c.345 0 .625.28.625.625v6.25H15V3.875h1.25a.625.625 0 0 0 .444-.181l1.062-1.069h.994v8.75z" fill="#fff"/></svg>