<svg width="21" height="21" fill="none" xmlns="http://www.w3.org/2000/svg"><g clip-path="url(#clip0)" fill="#fff"><path d="M11.527 3.011c-.21 0-.42.056-.61.163-.012.009-.025.013-.033.022L6.593 6.162h-3.45A3.147 3.147 0 0 0 0 9.304v2.383a3.147 3.147 0 0 0 3.142 3.142h3.622l4.111 2.967.043.03c.184.107.394.163.609.163a1.211 1.211 0 0 0 1.217-1.213V4.229c0-.673-.544-1.218-1.217-1.218zm.167 13.76a.176.176 0 0 1-.047.12.174.174 0 0 1-.116.047.172.172 0 0 1-.064-.012l-4.218-3.048a.529.529 0 0 0-.309-.099H3.142a2.095 2.095 0 0 1-2.092-2.092V9.304c0-1.153.939-2.092 2.092-2.092h3.614a.54.54 0 0 0 .3-.094l4.402-3.044a.136.136 0 0 1 .069-.017c.068 0 .167.052.167.167v12.547zm9.143-9.426a.523.523 0 0 0-.741 0l-2.414 2.413-2.413-2.413a.523.523 0 0 0-.742 0 .523.523 0 0 0 0 .742l2.414 2.413-2.414 2.413a.522.522 0 0 0 0 .742.522.522 0 0 0 .373.154c.137 0 .27-.051.373-.154l2.414-2.413 2.413 2.413a.522.522 0 0 0 .373.154.522.522 0 0 0 .373-.896L18.424 10.5l2.413-2.413a.53.53 0 0 0 0-.742z"/></g><defs><clipPath id="clip0"><path fill="#fff" d="M0 0h21v21H0z"/></clipPath></defs></svg>