<svg width="30" height="30" fill="none" xmlns="http://www.w3.org/2000/svg"><path d="M29.852 18.028L26.66 13.24l3.195-4.846a.879.879 0 0 0-.734-1.363h-7.91V4.395a2.64 2.64 0 0 0-2.637-2.637H8.638A2.64 2.64 0 0 0 6.152 0a2.64 2.64 0 0 0-2.636 2.637v25.605H.879a.879.879 0 0 0 0 1.758h10.547a.879.879 0 0 0 0-1.758H8.789V15.88h10.664v.879a2.64 2.64 0 0 0 2.637 2.637h7.031a.879.879 0 0 0 .731-1.367zM7.032 15v13.242h-1.76V2.637a.88.88 0 0 1 1.758 0V15zm12.421-.879H8.79V3.516h9.785a.88.88 0 0 1 .88.879v9.726zm2.637 3.516a.88.88 0 0 1-.88-.88V8.79h6.279l-2.617 3.97a.879.879 0 0 0 .002.97l2.605 3.908h-5.39z" fill="#2DAFE5"/></svg>