<svg width="20" height="21" fill="none" xmlns="http://www.w3.org/2000/svg"><path d="M18.925.112H1.094a.838.838 0 0 0-.747.455.851.851 0 0 0 .066.885l6.533 9.212.007.01c.237.32.365.709.366 1.108v7.51a.835.835 0 0 0 1.163.775l3.67-1.401c.33-.1.548-.411.548-.785v-6.099c0-.4.13-.788.367-1.109l.006-.009 6.532-9.213a.85.85 0 0 0 .067-.884.838.838 0 0 0-.747-.455zm-6.677 9.96a2.895 2.895 0 0 0-.563 1.71v5.975l-3.35 1.279v-7.254a2.894 2.894 0 0 0-.564-1.71L1.429 1.127H18.59l-6.342 8.943z" fill="#2DAFE5"/></svg>