<svg width="20" height="20" fill="none" xmlns="http://www.w3.org/2000/svg"><g clip-path="url(#clip0)"><path d="M6.004 13.168h11.02a2.273 2.273 0 0 0 2.269-2.268V6.214c0-.009 0-.017-.004-.025 0-.008-.004-.02-.004-.029 0-.008-.004-.016-.004-.024-.004-.009-.004-.017-.008-.03-.005-.007-.005-.016-.009-.024-.004-.008-.004-.016-.008-.025a.2.2 0 0 1-.012-.028.057.057 0 0 0-.013-.02l-.012-.026-.012-.02c-.004-.008-.013-.017-.017-.025a.07.07 0 0 0-.016-.02c-.004-.009-.012-.013-.017-.02-.004-.01-.012-.013-.016-.021-.004-.009-.012-.013-.016-.017a39.796 39.796 0 0 1-.021-.02c-.008-.005-.012-.013-.02-.017-.009-.004-.017-.012-.025-.016-.009-.004-.013-.008-.02-.013a.092.092 0 0 1-.026-.016l-.024-.012-.025-.013-.024-.012c-.009-.004-.017-.004-.025-.008a.076.076 0 0 0-.029-.008c-.008 0-.016-.005-.02-.005-.013-.004-.021-.004-.033-.004-.004 0-.008-.004-.017-.004L4.85 3.784V1.836c0-.02 0-.041-.004-.057 0-.005 0-.009-.004-.017 0-.012-.004-.025-.004-.037-.004-.012-.004-.02-.009-.033 0-.008-.004-.012-.004-.02l-.012-.037-.004-.017a.123.123 0 0 0-.016-.033c-.005-.004-.005-.012-.009-.016-.004-.008-.008-.017-.016-.025-.004-.008-.008-.012-.013-.02-.004-.009-.008-.013-.012-.02-.004-.01-.012-.017-.016-.026l-.013-.012-.024-.025-.013-.012a.179.179 0 0 0-.028-.025l-.017-.012c-.008-.008-.016-.012-.024-.02l-.033-.021c-.004-.004-.009-.004-.013-.008l-.053-.025L1.478.044a.554.554 0 1 0-.431 1.023l2.688 1.135V14.36c0 1.15.863 2.104 1.977 2.248-.201.337-.32.732-.32 1.15A2.243 2.243 0 0 0 7.632 20a2.245 2.245 0 0 0 2.24-2.24c0-.411-.111-.802-.308-1.13h4.99a2.199 2.199 0 0 0-.309 1.13 2.243 2.243 0 0 0 2.24 2.24 2.245 2.245 0 0 0 2.24-2.24 2.245 2.245 0 0 0-2.24-2.24H6.006a1.16 1.16 0 0 1-1.16-1.16v-1.504a2.3 2.3 0 0 0 1.16.313zm2.762 4.588c0 .625-.51 1.13-1.13 1.13-.62 0-1.13-.51-1.13-1.13 0-.621.51-1.13 1.13-1.13.62 0 1.13.505 1.13 1.13zm8.854 0c0 .625-.51 1.13-1.13 1.13-.62 0-1.13-.51-1.13-1.13 0-.621.51-1.13 1.13-1.13.62 0 1.13.505 1.13 1.13zm-.596-5.697H6.004a1.16 1.16 0 0 1-1.16-1.16V4.902l13.34 1.838v4.155c0 .646-.523 1.164-1.16 1.164z" fill="#2DAFE5"/></g><defs><clipPath id="clip0"><path fill="#fff" d="M0 0h20v20H0z"/></clipPath></defs></svg>