<svg width="25" height="21" fill="none" xmlns="http://www.w3.org/2000/svg"><path d="M24.388 1.112A2.006 2.006 0 0 0 22.917.5H2.083C1.51.5 1.02.704.612 1.112A2.006 2.006 0 0 0 0 2.583v15.833c0 .574.204 1.064.612 1.472.408.408.898.612 1.471.612h20.834c.572 0 1.063-.204 1.47-.612.409-.408.613-.898.613-1.472V2.583c0-.573-.204-1.063-.612-1.47zm-1.055 17.305a.4.4 0 0 1-.123.293.401.401 0 0 1-.293.123H2.083a.4.4 0 0 1-.293-.123.401.401 0 0 1-.123-.294V10.5h21.666v7.917zm0-12.917H1.667V2.583a.4.4 0 0 1 .123-.293.401.401 0 0 1 .293-.123h20.834a.4.4 0 0 1 .292.123.4.4 0 0 1 .124.293V5.5z" fill="#fff"/><path d="M6.667 15.5H3.334v1.667h3.333V15.5zm6.667 0h-5v1.667h5V15.5z" fill="#fff"/></svg>