<svg width="20" height="20" fill="none" xmlns="http://www.w3.org/2000/svg"><g clip-path="url(#clip0)" fill="#2DAFE5"><path d="M10.525 10.417h-2.4a.625.625 0 0 1 0-1.25h2.4c.4 0 .725-.325.725-.725a.728.728 0 0 0-.725-.734h-1.05a1.979 1.979 0 1 1 0-3.958h2.4a.625.625 0 0 1 0 1.25h-2.4c-.4 0-.725.325-.725.725 0 .408.326.733.725.733h1.05a1.979 1.979 0 1 1 0 3.958z"/><path d="M10 5a.625.625 0 0 1-.625-.625v-1.25a.625.625 0 0 1 1.25 0v1.25c0 .345-.28.625-.625.625zm0 6.667a.625.625 0 0 1-.625-.625v-1.25a.625.625 0 0 1 1.25 0v1.25c0 .345-.28.625-.625.625z"/><path d="M17.708 20H2.292A2.294 2.294 0 0 1 0 17.708v-4.583a1.46 1.46 0 0 1 1.458-1.458h2.297c.65 0 1.21.417 1.397 1.04l.894 2.978a.209.209 0 0 0 .199.148h7.51a.21.21 0 0 0 .2-.148l.893-2.98a1.452 1.452 0 0 1 1.397-1.038h2.297A1.46 1.46 0 0 1 20 13.125v4.583A2.294 2.294 0 0 1 17.708 20zm-16.25-7.083a.208.208 0 0 0-.208.208v4.583c0 .575.468 1.042 1.042 1.042h15.416c.575 0 1.042-.467 1.042-1.042v-4.583a.208.208 0 0 0-.208-.208h-2.297a.207.207 0 0 0-.2.148l-.893 2.98a1.47 1.47 0 0 1-1.397 1.038h-7.51a1.45 1.45 0 0 1-1.397-1.04l-.894-2.978a.206.206 0 0 0-.199-.148H1.458zm1.667-2.5a.625.625 0 0 1-.625-.625v-7.5A2.294 2.294 0 0 1 4.792 0h10.416A2.294 2.294 0 0 1 17.5 2.292v7.5a.625.625 0 0 1-1.25 0v-7.5c0-.574-.467-1.042-1.042-1.042H4.792c-.574 0-1.042.468-1.042 1.042v7.5c0 .345-.28.625-.625.625z"/></g><defs><clipPath id="clip0"><path fill="#fff" d="M0 0h20v20H0z"/></clipPath></defs></svg>