<svg width="4" height="16" fill="none" xmlns="http://www.w3.org/2000/svg"><path d="M2 6C.897 6 0 6.897 0 8s.897 2 2 2 2-.897 2-2-.897-2-2-2zm0 3.333A1.335 1.335 0 0 1 .667 8c0-.735.598-1.333 1.333-1.333S3.333 7.265 3.333 8 2.735 9.333 2 9.333zM2 12c-1.103 0-2 .897-2 2s.897 2 2 2 2-.897 2-2-.897-2-2-2zm0 3.333A1.335 1.335 0 0 1 .667 14c0-.735.598-1.333 1.333-1.333s1.333.598 1.333 1.333S2.735 15.333 2 15.333zM2 4c1.103 0 2-.897 2-2s-.897-2-2-2-2 .897-2 2 .897 2 2 2zM2 .667c.735 0 1.333.598 1.333 1.333S2.735 3.333 2 3.333A1.335 1.335 0 0 1 .667 2C.667 1.265 1.265.667 2 .667z" fill="#2DAFE5"/></svg>