<svg width="20" height="21" fill="none" xmlns="http://www.w3.org/2000/svg"><g clip-path="url(#clip0)" fill="#EB5757"><path d="M10 .951c-5.527 0-10 4.473-10 10 0 5.528 4.473 10 10 10s10-4.473 10-10-4.473-10-10-10zm0 18.438a8.433 8.433 0 0 1-8.438-8.438A8.433 8.433 0 0 1 10 2.514a8.433 8.433 0 0 1 8.438 8.437A8.433 8.433 0 0 1 10 19.39z"/><path d="M10 5.986a.781.781 0 0 0-.781.781v5.031a.781.781 0 0 0 1.562 0v-5.03A.781.781 0 0 0 10 5.985zm0 9.659a1.055 1.055 0 1 0 0-2.11 1.055 1.055 0 0 0 0 2.11z"/></g><defs><clipPath id="clip0"><path fill="#fff" transform="translate(0 .951)" d="M0 0h20v20H0z"/></clipPath></defs></svg>