<svg width="20" height="20" fill="none" xmlns="http://www.w3.org/2000/svg"><g clip-path="url(#clip0)" fill="#F2994A"><path d="M10 13.707c-.56 0-1.028.468-1.028 1.027 0 .56.468 1.028 1.027 1.028.54 0 1.028-.469 1.004-1.003a1.004 1.004 0 0 0-1.004-1.053z"/><path d="M19.513 17.35a3.51 3.51 0 0 0 .008-3.553l-6.438-11.15A3.498 3.498 0 0 0 10.003.86a3.51 3.51 0 0 0-3.079 1.784L.478 13.805a3.538 3.538 0 0 0 .012 3.573 3.519 3.519 0 0 0 3.071 1.764h12.86a3.54 3.54 0 0 0 3.092-1.793zm-1.398-.807a1.94 1.94 0 0 1-1.697.983H3.558a1.916 1.916 0 0 1-1.678-.962 1.945 1.945 0 0 1-.004-1.961L8.322 3.445a1.91 1.91 0 0 1 1.682-.975c.703 0 1.332.366 1.681.979l6.443 11.158a1.92 1.92 0 0 1-.012 1.936z"/><path d="M9.745 6.491c-.49.14-.794.584-.794 1.123.025.324.045.653.07.978l.21 3.688c.024.42.35.724.769.724a.768.768 0 0 0 .768-.749c0-.255 0-.489.025-.748.045-.793.095-1.587.14-2.38.024-.514.07-1.028.094-1.542 0-.185-.024-.35-.094-.514a1.03 1.03 0 0 0-1.188-.58z"/></g><defs><clipPath id="clip0"><path fill="#fff" d="M0 0h20v20H0z"/></clipPath></defs></svg>