<svg width="20" height="16" fill="none" xmlns="http://www.w3.org/2000/svg"><path d="M.702 10.337V1.828c0-.473.383-.856.856-.856h8.505c.473 0 .856.383.856.856v8.51a.285.285 0 0 1-.285.285H.987a.285.285 0 0 1-.285-.286zm6.868 2.915a1.776 1.776 0 1 1-3.552 0 1.776 1.776 0 0 1 3.552 0zm-.888 0a.888.888 0 1 0-1.776 0 .888.888 0 0 0 1.776 0zm-2.417-1.775H.285a.285.285 0 0 0-.285.285v.866c0 .158.128.285.285.285h3.19a2.343 2.343 0 0 1 .79-1.436zm12.596 1.775a1.776 1.776 0 1 1-3.552 0 1.776 1.776 0 0 1 3.552 0zm-.888 0a.888.888 0 1 0-1.776 0 .888.888 0 0 0 1.776 0zM20 11.762v.866a.285.285 0 0 1-.285.285h-2.311a2.348 2.348 0 0 0-2.319-2.007 2.348 2.348 0 0 0-2.32 2.007H8.114a2.343 2.343 0 0 0-.79-1.436h4.412V3.314a.57.57 0 0 1 .57-.571H15c.759 0 1.468.377 1.892 1.005l1.737 2.573c.255.377.391.822.391 1.278v3.878h.695c.157 0 .285.127.285.285zm-2.895-5.375l-1.39-1.974a.285.285 0 0 0-.232-.12h-2.167a.285.285 0 0 0-.285.284v1.974c0 .158.127.285.285.285h3.556c.23 0 .366-.26.233-.45z" fill="#4CAF50"/></svg>