<svg width="20" height="20" fill="none" xmlns="http://www.w3.org/2000/svg"><path d="M10.013 20a3.128 3.128 0 0 1-3.125-3.125.625.625 0 0 1 1.25 0c0 1.034.84 1.875 1.875 1.875 1.034 0 1.875-.84 1.875-1.875a.625.625 0 0 1 1.25 0A3.128 3.128 0 0 1 10.013 20z" fill="#2DAFE5"/><path d="M16.888 17.5H3.138a1.46 1.46 0 0 1-.948-2.567 5.584 5.584 0 0 0 1.99-4.276V8.333A5.84 5.84 0 0 1 10.013 2.5a5.84 5.84 0 0 1 5.833 5.833v2.324c0 1.649.723 3.206 1.982 4.27a1.458 1.458 0 0 1-.94 2.573zM10.013 3.75A4.588 4.588 0 0 0 5.43 8.333v2.324a6.83 6.83 0 0 1-2.425 5.225.207.207 0 0 0-.075.16.21.21 0 0 0 .208.208h13.75a.21.21 0 0 0 .208-.208.206.206 0 0 0-.073-.159 6.832 6.832 0 0 1-2.427-5.226V8.333a4.588 4.588 0 0 0-4.583-4.583z" fill="#2DAFE5"/><path d="M10.013 3.75a.625.625 0 0 1-.625-.625v-2.5a.625.625 0 0 1 1.25 0v2.5c0 .345-.28.625-.625.625z" fill="#2DAFE5"/></svg>