<svg width="40" height="40" fill="none" xmlns="http://www.w3.org/2000/svg"><path d="M33.333 7.063v-3.73A3.337 3.337 0 0 0 30 0H3.333A3.338 3.338 0 0 0 0 3.333V18a3.327 3.327 0 0 0 2.99 3.299l2.505 6.505a3.334 3.334 0 0 0 4.31 1.912l15.648-6.028a9.637 9.637 0 0 0 .83 8.557l.384.612v6.476c0 .369.298.667.666.667h12a.666.666 0 0 0 .667-.667V17.328a8.725 8.725 0 0 0-2.554-6.146l-4.113-4.12zm0 3.987l2.024 5.252a2 2 0 0 1-1.148 2.585l-1.157.446c.185-.42.28-.874.281-1.333v-6.95zm-32 6.95V3.333a2 2 0 0 1 2-2H30a2 2 0 0 1 2 2v4.238h-.006l.006.015V18a2 2 0 0 1-.045.345l-6.107-6.107a3.557 3.557 0 0 0-5.133 4.919L23.318 20H3.333a2 2 0 0 1-2-2zm8.541 3.333l-4.74 1.826-.702-1.826h5.442zm-.55 7.139a2 2 0 0 1-2.585-1.147L5.615 24.4l7.958-3.067v-.004H24.54l.867.945-16.082 6.198zm29.343 10.195H28v-5.334h10.667v5.334zm0-6.667H27.703l-.289-.462A8.314 8.314 0 0 1 27.245 23a.666.666 0 0 0-.087-.781l-5.463-5.96a2.223 2.223 0 0 1 3.21-3.075l10.624 10.62.942-.942-2.466-2.467.684-.266a3.334 3.334 0 0 0 1.911-4.307l-2.257-5.86 2.16 2.165a7.383 7.383 0 0 1 2.164 5.2V32z" fill="#fff"/><path d="M7.6 9.333c.957 0 1.733-.776 1.733-1.733V4.4c0-.957-.776-1.733-1.733-1.733H4.4c-.958 0-1.734.776-1.734 1.733v3.2c0 .957.776 1.733 1.734 1.733h3.2zM4 7.6v-.933h1.333V5.333H4V4.4a.4.4 0 0 1 .4-.4h3.2c.22 0 .4.18.4.4v.933H6.667v1.334H8V7.6a.4.4 0 0 1-.4.4H4.4a.4.4 0 0 1-.4-.4zm-.667 3.733H6v1.334H3.333v-1.334zm0 4H6v1.334H3.333v-1.334zm12.001 0H18v1.334h-2.666v-1.334zm-8.001-4H10v1.334H7.333v-1.334zm4.001 0H14v1.334h-2.666v-1.334zm4 0H18v1.334h-2.666v-1.334zm12.666-8h1.333v2H28v-2zm-2.666 0h1.333v2h-1.334v-2zm-2.668 0H24v2h-1.334v-2zm-2.666 0h1.333v2H20v-2zm9.334 31.334h1.333V36h-1.334v-1.333z" fill="#fff"/></svg>