<svg xmlns="http://www.w3.org/2000/svg" width="1080" height="263.25" viewBox="0 0 1080 263.25">
  <title>CAPTAINSCLUB_BRANDBOOK_052219</title>
  <g>
    <g>
      <path d="M141.216,122.746c3.183-3.942,5.661-3.126,5.661-3.126-1.014-1.013-3.239-1.717-4.366,0a6.991,6.991,0,0,1-2.45,2.366l-3.661-4.675a1.58,1.58,0,0,0-1.915,1.155l3.886,5.013s.31.085-1.211,1.155a1.742,1.742,0,0,0-.281,2.591,2.326,2.326,0,0,1,1.689-1.662c1.3-.422,2.169-.817,2.169-.817.9,0,1.972,1.211,5.041,1.071a1.947,1.947,0,0,1,2.056,1.408c.676-3.352-5.6-3.437-5.6-3.437l.788-.507c.817-.535,2.394.9,3.408-.028a1.486,1.486,0,0,1,2,0C147.75,119.113,141.216,122.746,141.216,122.746Z" fill="#fff"/>
      <circle cx="161.507" cy="130.496" r="2.41" fill="#fff"/>
      <path d="M164.347,140.45a2.411,2.411,0,1,0,2.41,2.411A2.41,2.41,0,0,0,164.347,140.45Z" fill="#fff"/>
      <path d="M171.776,122.638a2.41,2.41,0,1,0-2.41,2.409A2.41,2.41,0,0,0,171.776,122.638Z" fill="#fff"/>
      <path d="M131.584,115.931a29.334,29.334,0,0,1,2.14,2.591,2.778,2.778,0,0,1,3.127-1.944s-6.253-7.434-3.746-14.532,3.211-18.9-4.647-23.094l2.506-2.422a55.155,55.155,0,0,1-8.195,1.126,2.1,2.1,0,0,0-2.31,2.591c-5.52.649-3.746,3.38-3.746,3.38s2.507-2.112,4.112,0-1.239,2.732-1.239,2.732a2.366,2.366,0,0,0,2.845-.648s1.436,2.253-.366,3.887c-1.775,1.605-3.746,9.688-.536,15.349s-3.041,11.293-3.041,11.293a2.8,2.8,0,0,1,2.957,2.253,32.317,32.317,0,0,1,2.309-2.59c-.732,2.9-3.576,19.912-8.9,21.6,0,0,6.252.338,9.265-11.659,0,0-1.774,10.983-5.182,14.785,0,0,5.436-1.887,6.957-11.856,0,0-.535,10.336,1.774,14.532,2.141-4.28,1.774-14.532,1.774-14.532,1.521,9.969,6.957,11.856,6.957,11.856-3.38-3.8-5.182-14.785-5.182-14.785,3.041,11.97,9.265,11.659,9.265,11.659C135.161,135.843,132.316,118.861,131.584,115.931Z" fill="#fff"/>
      <path d="M116.488,91.738s-5.069,7.548-5.886,10.055a14.9,14.9,0,0,1-3.408,4.929,7.588,7.588,0,0,0,6.083-4.281c1.718-3.971,3.211-6.591,3.211-6.591s-1.211,4.224-.253,7.435c.619,2.056-1.662,5.3-1.662,5.3s4.844-.9,4.309-6.787c-.591-6.422-.451-6.393,1.042-10.928,0,0-7.182-.563-5.407-6.731,1.8-6.2-8.928-4.394-12.449-2.985-2.957,1.182-16.025,13.1-31.938,12.73,0,0,.648,1.549,3.211,1.774a31.606,31.606,0,0,0,15.913-3.577c6.534-3.436,13.152-7.745,15.574-8.28a14.094,14.094,0,0,1,6.281-.169,26.832,26.832,0,0,0-9.181,3.436c-4.957,2.9-11.6,7.435-18.138,9.1s-8.731,1.38-8.731,1.38,1.8,2.2,6.224,1.606,10.59-2.676,13.97-5.126,10.9-6.421,15.771-7.492a88.022,88.022,0,0,0-13.349,8.336C92.324,99.23,85,100.723,81.621,100.92c0,0,6.732,3.858,16.532-3.577s14.167-8.449,14.167-8.449-8.984,5.773-11.8,9.35-8.731,5.52-11.406,5.576c0,0,6.478,2.676,12.955-3.154s7.633-7.66,12.111-10.055c0,0-8.28,7.8-10.139,10.872a12.048,12.048,0,0,1-5.014,4.45s4.873.7,8.647-4.45A81.006,81.006,0,0,1,116.488,91.738Z" fill="#fff"/>
      <path d="M118.263,126.943a1.743,1.743,0,0,0-.282-2.591c-1.521-1.071-1.211-1.155-1.211-1.155l3.886-5.013a1.581,1.581,0,0,0-1.915-1.155L115.08,121.7a6.981,6.981,0,0,1-2.45-2.365c-1.127-1.719-3.352-1.015-4.366,0,0,0,2.451-.817,5.661,3.126,0,0-6.534-3.633-7.21.507a1.492,1.492,0,0,1,2,0c1.014.9,2.563-.507,3.352,0l.788.507s-6.252.113-5.6,3.436a1.946,1.946,0,0,1,2.055-1.408c3.07.141,4.14-1.07,5.042-1.07,0,0,.873.366,2.168.816A2.466,2.466,0,0,1,118.263,126.943Z" fill="#fff"/>
      <path d="M172.206,132.592a2.41,2.41,0,1,0,2.41,2.41A2.41,2.41,0,0,0,172.206,132.592Z" fill="#fff"/>
      <path d="M194.909,78.667l-.161-5.674h-3.82c-7.624,0-23.92-3.609-35.113-8.787-17.1-7.913-38.211-8.127-55.082-.558-12.325,5.529-28.066,9.39-38.279,9.39H58.347l.181,4.1c.225,5.058.393,10.114.555,15,.365,10.966.709,21.324,1.637,31.868,3.369,38.293,24.172,65.242,61.831,80.1a14.054,14.054,0,0,0,4.932,1,8.282,8.282,0,0,0,2.963-.51c12.829-4.911,23.243-10.655,31.835-17.556a77.287,77.287,0,0,0,22.642-29.023C196.441,132.514,195.662,105.14,194.909,78.667ZM129.041,200.934c-1.427.547-3.517.127-5.048-.477q-3.064-1.208-5.981-2.532h6.333a3.262,3.262,0,0,1,.91.123,5.066,5.066,0,0,1,1.453.744,24.458,24.458,0,0,0,2.9,1.919C129.421,200.784,129.232,200.861,129.041,200.934Zm3.945-1.572a7.987,7.987,0,0,1-1.523-.4,13.443,13.443,0,0,1-3.164-1.931,9.146,9.146,0,0,0-1.714-1,5.613,5.613,0,0,0-2.24-.456H113.1q-2.962-1.508-5.759-3.144h17.007a5.594,5.594,0,0,1,2.473.5,7.6,7.6,0,0,1,1.351.856,17.15,17.15,0,0,0,2.38,1.676,7.392,7.392,0,0,0,1.685.65,8.771,8.771,0,0,0,2.13.246,7.939,7.939,0,0,0,3.476-.726,9.762,9.762,0,0,0,1.775-1.113,15.594,15.594,0,0,1,2.061-1.471,4.987,4.987,0,0,1,1.149-.443,6.342,6.342,0,0,1,1.558-.176,5.727,5.727,0,0,1,2.224.393A128.746,128.746,0,0,1,132.986,199.362ZM149,191.445a9,9,0,0,0-.8-.483,7.282,7.282,0,0,0-1.685-.649,8.665,8.665,0,0,0-2.13-.247,7.967,7.967,0,0,0-3.476.726,9.815,9.815,0,0,0-1.775,1.112,15.515,15.515,0,0,1-2.061,1.472,4.969,4.969,0,0,1-1.149.443,6.342,6.342,0,0,1-1.558.176,5.571,5.571,0,0,1-2.472-.5,7.4,7.4,0,0,1-1.352-.855,17.15,17.15,0,0,0-2.38-1.676,7.3,7.3,0,0,0-1.685-.649,8.665,8.665,0,0,0-2.13-.247H103.508q-2.355-1.521-4.578-3.144h25.415a5.607,5.607,0,0,1,2.473.5,7.6,7.6,0,0,1,1.351.856,17.15,17.15,0,0,0,2.38,1.676,7.392,7.392,0,0,0,1.685.65,8.771,8.771,0,0,0,2.13.246,7.953,7.953,0,0,0,3.476-.726,9.817,9.817,0,0,0,1.775-1.113,15.594,15.594,0,0,1,2.061-1.471,4.987,4.987,0,0,1,1.149-.443,6.387,6.387,0,0,1,1.558-.177,5.6,5.6,0,0,1,2.473.5,7.609,7.609,0,0,1,1.352.856,17.09,17.09,0,0,0,2.38,1.676c.151.08.311.156.475.23Q150.039,190.827,149,191.445Zm4.717-2.984a5.167,5.167,0,0,1-1.781-.469,7.408,7.408,0,0,1-1.352-.856,17.166,17.166,0,0,0-2.381-1.675,7.282,7.282,0,0,0-1.685-.649,8.714,8.714,0,0,0-2.13-.247,7.967,7.967,0,0,0-3.476.726,9.815,9.815,0,0,0-1.775,1.112,15.608,15.608,0,0,1-2.061,1.472,5.016,5.016,0,0,1-1.149.444,6.4,6.4,0,0,1-1.558.175,5.585,5.585,0,0,1-2.472-.5,7.456,7.456,0,0,1-1.352-.855,17.065,17.065,0,0,0-2.38-1.676,7.3,7.3,0,0,0-1.685-.649,8.714,8.714,0,0,0-2.13-.247h-28.5q-1.917-1.53-3.726-3.144h32.228a5.593,5.593,0,0,1,2.473.5,7.6,7.6,0,0,1,1.351.856,17.235,17.235,0,0,0,2.38,1.676,7.392,7.392,0,0,0,1.685.65,8.771,8.771,0,0,0,2.13.246,7.938,7.938,0,0,0,3.476-.727,9.76,9.76,0,0,0,1.775-1.112,15.7,15.7,0,0,1,2.061-1.472,4.986,4.986,0,0,1,1.149-.442,6.29,6.29,0,0,1,1.558-.177,5.589,5.589,0,0,1,2.473.5,7.609,7.609,0,0,1,1.352.856,17.174,17.174,0,0,0,2.38,1.676,7.392,7.392,0,0,0,1.685.65,8.771,8.771,0,0,0,2.13.246,7.938,7.938,0,0,0,3.476-.727,9.76,9.76,0,0,0,1.775-1.112,15.768,15.768,0,0,1,2.061-1.472,5,5,0,0,1,.832-.352A86.6,86.6,0,0,1,153.712,188.461Zm11.635-9.35c-.3-.029-.6-.047-.925-.047a7.956,7.956,0,0,0-3.476.726,9.762,9.762,0,0,0-1.775,1.113,15.687,15.687,0,0,1-2.061,1.471,5.016,5.016,0,0,1-1.149.444,6.4,6.4,0,0,1-1.558.175,5.585,5.585,0,0,1-2.472-.5,7.462,7.462,0,0,1-1.352-.856,17.166,17.166,0,0,0-2.381-1.675,7.283,7.283,0,0,0-1.685-.65,8.765,8.765,0,0,0-2.13-.246,7.953,7.953,0,0,0-3.476.726,9.762,9.762,0,0,0-1.775,1.113,15.687,15.687,0,0,1-2.061,1.471,5.016,5.016,0,0,1-1.149.444,6.4,6.4,0,0,1-1.558.175,5.585,5.585,0,0,1-2.472-.5,7.462,7.462,0,0,1-1.352-.856,17.151,17.151,0,0,0-2.38-1.675,7.3,7.3,0,0,0-1.685-.65,8.765,8.765,0,0,0-2.13-.246H89.58Q88,177.528,86.508,175.92h37.837a5.593,5.593,0,0,1,2.473.5,7.6,7.6,0,0,1,1.351.856,17.211,17.211,0,0,0,2.38,1.675,7.346,7.346,0,0,0,1.685.65,8.72,8.72,0,0,0,2.13.247,7.952,7.952,0,0,0,3.476-.727,9.76,9.76,0,0,0,1.775-1.112,15.7,15.7,0,0,1,2.061-1.472,4.986,4.986,0,0,1,1.149-.442,6.29,6.29,0,0,1,1.558-.177,5.589,5.589,0,0,1,2.473.5,7.609,7.609,0,0,1,1.352.856,17.091,17.091,0,0,0,2.38,1.675,7.346,7.346,0,0,0,1.685.65,8.72,8.72,0,0,0,2.13.247,7.952,7.952,0,0,0,3.476-.727,9.76,9.76,0,0,0,1.775-1.112,15.768,15.768,0,0,1,2.061-1.472,4.986,4.986,0,0,1,1.149-.442,6.29,6.29,0,0,1,1.558-.177,5.586,5.586,0,0,1,2.473.5,5.825,5.825,0,0,1,.721.408C166.876,177.609,166.117,178.365,165.347,179.111Zm3.886-4.033a9.386,9.386,0,0,0-1-.62,7.327,7.327,0,0,0-1.685-.649,8.765,8.765,0,0,0-2.13-.246,7.956,7.956,0,0,0-3.476.726,9.762,9.762,0,0,0-1.775,1.113,15.58,15.58,0,0,1-2.061,1.47,4.97,4.97,0,0,1-1.149.444,6.4,6.4,0,0,1-1.558.175,5.586,5.586,0,0,1-2.472-.5,7.462,7.462,0,0,1-1.352-.856,17.165,17.165,0,0,0-2.381-1.676,7.327,7.327,0,0,0-1.685-.649,8.765,8.765,0,0,0-2.13-.246,7.953,7.953,0,0,0-3.476.726,9.762,9.762,0,0,0-1.775,1.113,15.58,15.58,0,0,1-2.061,1.47,4.97,4.97,0,0,1-1.149.444,6.4,6.4,0,0,1-1.558.175,5.586,5.586,0,0,1-2.472-.5,7.462,7.462,0,0,1-1.352-.856,17.235,17.235,0,0,0-2.38-1.676,7.345,7.345,0,0,0-1.685-.649,8.765,8.765,0,0,0-2.13-.246H84.407q-1.317-1.54-2.551-3.144h42.489a5.579,5.579,0,0,1,2.473.5,7.49,7.49,0,0,1,1.351.856,17.236,17.236,0,0,0,2.38,1.675,7.346,7.346,0,0,0,1.685.65,8.72,8.72,0,0,0,2.13.247,7.952,7.952,0,0,0,3.476-.727,9.76,9.76,0,0,0,1.775-1.112,15.608,15.608,0,0,1,2.061-1.472,5.033,5.033,0,0,1,1.149-.443,6.342,6.342,0,0,1,1.558-.176,5.575,5.575,0,0,1,2.473.5,7.5,7.5,0,0,1,1.352.856,17.175,17.175,0,0,0,2.38,1.675,7.346,7.346,0,0,0,1.685.65,8.72,8.72,0,0,0,2.13.247,7.952,7.952,0,0,0,3.476-.727,9.76,9.76,0,0,0,1.775-1.112,15.674,15.674,0,0,1,2.061-1.472,5.033,5.033,0,0,1,1.149-.443,6.342,6.342,0,0,1,1.558-.176,5.572,5.572,0,0,1,2.473.5,7.455,7.455,0,0,1,1.351.856,17.313,17.313,0,0,0,2.381,1.675l.01,0Q169.945,174.281,169.233,175.078Zm2.932-3.5c-.066-.027-.132-.055-.2-.085a7.49,7.49,0,0,1-1.351-.856,17.165,17.165,0,0,0-2.381-1.676,7.327,7.327,0,0,0-1.685-.649,8.716,8.716,0,0,0-2.13-.246,7.957,7.957,0,0,0-3.476.725,9.817,9.817,0,0,0-1.775,1.113,15.5,15.5,0,0,1-2.061,1.471,4.97,4.97,0,0,1-1.149.444,6.4,6.4,0,0,1-1.558.175,5.586,5.586,0,0,1-2.472-.5,7.462,7.462,0,0,1-1.352-.856,17.165,17.165,0,0,0-2.381-1.676,7.327,7.327,0,0,0-1.685-.649,8.716,8.716,0,0,0-2.13-.246,7.954,7.954,0,0,0-3.476.725,9.817,9.817,0,0,0-1.775,1.113,15.5,15.5,0,0,1-2.061,1.471,4.97,4.97,0,0,1-1.149.444,6.4,6.4,0,0,1-1.558.175,5.586,5.586,0,0,1-2.472-.5,7.462,7.462,0,0,1-1.352-.856,17.15,17.15,0,0,0-2.38-1.676,7.345,7.345,0,0,0-1.685-.649,8.716,8.716,0,0,0-2.13-.246H80.108q-1.1-1.547-2.131-3.145h46.368a5.607,5.607,0,0,1,2.473.5,7.552,7.552,0,0,1,1.351.857,17.236,17.236,0,0,0,2.38,1.675,7.346,7.346,0,0,0,1.685.65,8.771,8.771,0,0,0,2.13.246,7.953,7.953,0,0,0,3.476-.726,9.817,9.817,0,0,0,1.775-1.113,15.687,15.687,0,0,1,2.061-1.471,4.987,4.987,0,0,1,1.149-.443,6.436,6.436,0,0,1,1.558-.177,5.6,5.6,0,0,1,2.473.5,7.559,7.559,0,0,1,1.352.857,17.175,17.175,0,0,0,2.38,1.675,7.346,7.346,0,0,0,1.685.65,8.771,8.771,0,0,0,2.13.246,7.953,7.953,0,0,0,3.476-.726,9.871,9.871,0,0,0,1.775-1.112,15.674,15.674,0,0,1,2.061-1.472,4.987,4.987,0,0,1,1.149-.443,6.436,6.436,0,0,1,1.558-.177,5.6,5.6,0,0,1,2.473.5,7.517,7.517,0,0,1,1.351.857,17.313,17.313,0,0,0,2.381,1.675,7.328,7.328,0,0,0,1.685.65,8.7,8.7,0,0,0,1.894.24C173.543,169.771,172.864,170.685,172.165,171.574Zm9.3-15.454c-.043.1-.082.192-.125.287a73.959,73.959,0,0,1-5.419,9.923,6.411,6.411,0,0,1-1.481.159,5.575,5.575,0,0,1-2.473-.5,7.429,7.429,0,0,1-1.351-.855,17.165,17.165,0,0,0-2.381-1.676,7.327,7.327,0,0,0-1.685-.649,8.714,8.714,0,0,0-2.13-.247,7.971,7.971,0,0,0-3.476.726,9.762,9.762,0,0,0-1.775,1.113,15.594,15.594,0,0,1-2.061,1.471,5.016,5.016,0,0,1-1.149.444,6.4,6.4,0,0,1-1.558.175,5.571,5.571,0,0,1-2.472-.5,7.4,7.4,0,0,1-1.352-.855,17.165,17.165,0,0,0-2.381-1.676,7.327,7.327,0,0,0-1.685-.649,8.714,8.714,0,0,0-2.13-.247,7.967,7.967,0,0,0-3.476.726,9.762,9.762,0,0,0-1.775,1.113,15.594,15.594,0,0,1-2.061,1.471,5.016,5.016,0,0,1-1.149.444,6.4,6.4,0,0,1-1.558.175,5.571,5.571,0,0,1-2.472-.5,7.4,7.4,0,0,1-1.352-.855,17.15,17.15,0,0,0-2.38-1.676,7.345,7.345,0,0,0-1.685-.649,8.714,8.714,0,0,0-2.13-.247H88.391V135.807l9.155-3.624-9.155-3.809H86.426V162.56h-9.9q-1.267-2.136-2.409-4.367a92.969,92.969,0,0,1-9.479-34.526c-1.343-15.26-1.467-30.626-2.18-46.7,11.2,0,27.569-4.209,39.887-9.734,16.015-7.185,35.893-6.831,51.824.539,11.409,5.278,28.336,9.15,36.763,9.15C191.694,104.069,192.734,130.944,181.467,156.12Z" fill="#fff"/>
      <path d="M139.329,84.162c.986,5.774-3.83,6.252-3.83,6.252,1.52,4.507-.648,5.521-.648,11.435s4.422,6.788,4.422,6.788-2.338-3.211-1.718-5.3c.985-3.211-.254-7.436-.254-7.436s1.521,2.62,3.3,6.591,6.253,4.281,6.253,4.281a14.945,14.945,0,0,1-3.493-4.929c-.845-2.506-6.055-10.055-6.055-10.055a78.177,78.177,0,0,1,9.041,9.745c3.886,5.183,8.9,4.45,8.9,4.45a12.6,12.6,0,0,1-5.154-4.45c-1.915-3.1-10.42-10.871-10.42-10.871,4.619,2.365,5.8,4.225,12.448,10.055s13.322,3.154,13.322,3.154c-2.76-.057-8.844-2.028-11.745-5.577-2.9-3.576-12.138-9.35-12.138-9.35s4.478,1.014,14.56,8.45,17.011,3.576,17.011,3.576c-3.492-.169-11.012-1.661-16.532-6a93.2,93.2,0,0,0-13.715-8.336c5.013,1.07,12.73,5.041,16.222,7.491s9.829,4.507,14.363,5.126c4.535.592,6.394-1.6,6.394-1.6s-2.253.309-8.957-1.38c-6.731-1.662-13.574-6.2-18.644-9.1a27.924,27.924,0,0,0-9.435-3.437,14.9,14.9,0,0,1,6.45.169c2.506.536,9.294,4.817,16.025,8.281a33.517,33.517,0,0,0,16.335,3.577c2.647-.226,3.295-1.775,3.295-1.775-16.335.254-29.769-11.631-32.811-12.814C148.51,79.769,138.231,77.8,139.329,84.162Z" fill="#fff"/>
    </g>
    <g>
      <path d="M276.818,154.344c-9.648,0-15.712-6.065-15.712-22.6,0-17,5.237-23.062,13.231-23.062,7.442,0,12.129,4.961,15.62,16.263h10.566V100.685h-9.188l-2.021,7.075c-3.676-4.686-9.464-7.259-17.366-7.259-15.895,0-29.494,12.772-29.494,32.342,0,19.02,12.4,31.057,31.975,31.057,17.274,0,25.359-10.291,26.921-25.635h-9.831C289.773,148.188,285.087,154.344,276.818,154.344Z" fill="#fff"/>
      <path d="M345.914,101.6h-17.55L309.62,153.609h-6.707v8.82h24.165v-8.82h-7.626l3.216-9.648H342.79l3.216,9.648h-7.627v8.82h33.262v-8.82h-6.708Zm-20.582,34.272,7.167-21.684h.368l7.166,21.684Z" fill="#fff"/>
      <path d="M406.465,101.972H374.858v8.82H382.3v42.817h-7.442v8.82h32.8v-8.82h-7.993V139.643h6.8c18.835,0,26.829-7.626,26.829-18.836C433.294,109.322,425.576,101.972,406.465,101.972Zm-1.378,29.034h-5.421V110.333h5.421c7.718,0,10.015,2.756,10.015,10.29C415.1,128.066,412.621,131.006,405.087,131.006Z" fill="#fff"/>
      <path d="M477.858,109.6c7.166,0,8.636,2.39,11.576,17.918h8.546V101.972H437.246v25.543h8.545c2.94-15.528,4.41-17.918,11.577-17.918h1.562v44.012h-9v8.82H485.3v-8.82h-9V109.6Z" fill="#fff"/>
      <path d="M539.419,101.6h-17.55l-18.743,52.005h-6.708v8.82h24.165v-8.82h-7.626l3.216-9.648h20.122l3.216,9.648h-7.627v8.82h33.262v-8.82h-6.708Zm-20.582,34.272L526,114.192h.368l7.166,21.684Z" fill="#fff"/>
      <polygon points="569.465 110.792 577.183 110.792 577.183 153.609 569.465 153.609 569.465 162.429 602.267 162.429 602.267 153.609 594.549 153.609 594.549 110.792 602.267 110.792 602.267 101.972 569.465 101.972 569.465 110.792" fill="#fff"/>
      <path d="M812.679,154.344c-9.647,0-15.712-6.065-15.712-22.6,0-17,5.238-23.062,13.231-23.062,7.443,0,12.129,4.961,15.621,16.263h10.566V100.685H827.2l-2.022,7.075c-3.675-4.686-9.464-7.259-17.366-7.259-15.895,0-29.494,12.772-29.494,32.342,0,19.02,12.4,31.057,31.975,31.057,17.274,0,25.359-10.291,26.922-25.635H827.38C825.635,148.188,820.948,154.344,812.679,154.344Z" fill="#fff"/>
      <path d="M876.078,153.884h-9.372V110.516h8.637v-8.544H841.9v8.82h7.442v42.817H841.9v8.82h55.037v-26h-8.361C884.807,151.955,883.245,153.884,876.078,153.884Z" fill="#fff"/>
      <path d="M680.973,129.485c7.8-3.21,12.2-7.062,13.207-12.473l-.733-.366a4.683,4.683,0,0,1-4.128,2.017c-3.76,0-6.328-2.843-6.328-7.337,0-5.044,3.485-9.354,8.8-9.354,6.053,0,10.09,4.493,10.09,12.014,0,9.721-6.88,17.242-18.711,20.451Z" fill="#fff"/>
      <path d="M940.213,110.792h7.534v26.462c0,6.34-1.286,10.658-3.767,13.139-2.205,2.205-5.145,3.216-9.188,3.216-8.269,0-12.771-3.584-12.771-14.7V110.792H930.2v-8.82H897.213v8.82h7.442v29.769c0,14.794,8.729,23.339,27.565,23.339,17.457,0,24.807-10.842,24.807-23.982V110.792H964.1v-8.82H940.213Z" fill="#fff"/>
      <path d="M1008.114,131.19v-.643c12.129-1.746,16.631-7.351,16.631-13.967,0-6.89-4.5-14.608-24.9-14.608H967.227v8.82h7.442v42.817h-7.442v8.82h33.353c19.2,0,26-7.167,26-16.447C1026.582,137.621,1020.978,132.752,1008.114,131.19Zm-16.079-20.4h5.881c7.534,0,9.463,2.2,9.463,7.534s-2.3,8.453-9.555,8.453h-5.789Zm6.064,42.817h-6.064V135.6h5.881c8.361,0,11.117,3.124,11.117,8.729C1009.033,151.312,1006.46,153.609,998.1,153.609Z" fill="#fff"/>
      <path d="M708.187,139.887h9.171c2.843,9.354,8.163,14.306,18.435,14.306,6.237,0,9.63-3.026,9.63-7.153,0-4.769-5.412-5.87-14.949-8.07-10.181-2.294-21.829-5.778-21.829-19.719,0-12.2,10.273-19.9,22.2-19.9,7.153,0,12.564,2.66,15.591,6.786l1.926-6.6h8.9v21.645h-9.171c-3.026-9.172-7.246-13.39-15.407-13.39-6.238,0-9.356,3.484-9.356,7.061,0,5.136,6.055,6.329,15.409,8.529,10.088,2.385,21.368,5.778,21.368,19.26,0,11.923-9.354,19.993-23.019,19.993-7.8,0-14.583-3.393-17.884-7.612l-2.11,7.429h-8.9Z" fill="#fff"/>
      <path d="M624.779,117.315h-.828v36.294h7.719v8.821h-23.8v-8.821h7.257V110.792h-7.257v-8.82h28.206L659.6,143.5h.828v-32.71H652.71v-8.82h23.8v8.82H669.25V162.98H650.688Z" fill="#fff"/>
    </g>
  </g>
</svg>
