<svg xmlns="http://www.w3.org/2000/svg" width="1080" height="711.89" viewBox="0 0 1080 711.89">
  <title>CAPTAINSCLUB_BRANDBOOK_052219</title>
  <g>
    <g>
      <path d="M719.457,113.227l-.422-14.97H708.956c-20.115,0-63.108-9.521-92.639-23.184C571.193,54.2,515.509,53.634,471,73.6c-32.516,14.587-74.044,24.773-100.989,24.773H359.171l.481,10.826c.591,13.345,1.034,26.682,1.463,39.581.962,28.931,1.87,56.258,4.317,84.076,8.891,101.027,63.774,172.127,163.127,211.325a37.122,37.122,0,0,0,13.013,2.645,21.839,21.839,0,0,0,7.816-1.347c33.848-12.959,61.321-28.11,83.989-46.316,26.568-21.34,46.108-46.387,59.736-76.572C723.5,255.287,721.445,183.069,719.457,113.227ZM545.681,435.8c-3.764,1.441-9.278.334-13.318-1.259q-8.082-3.189-15.779-6.68h16.71a8.58,8.58,0,0,1,2.4.326,13.243,13.243,0,0,1,3.833,1.962,64.63,64.63,0,0,0,7.662,5.062C546.685,435.4,546.186,435.6,545.681,435.8Zm10.408-4.147a20.961,20.961,0,0,1-4.017-1.064c-3.314-1.253-5.643-3.159-8.348-5.094a24.17,24.17,0,0,0-4.521-2.649,14.845,14.845,0,0,0-5.909-1.2H503.617q-7.815-3.975-15.192-8.294h44.869a14.722,14.722,0,0,1,6.522,1.324,19.8,19.8,0,0,1,3.566,2.258,45.324,45.324,0,0,0,6.279,4.421,19.393,19.393,0,0,0,4.445,1.714,23.075,23.075,0,0,0,5.62.65A21.013,21.013,0,0,0,568.9,421.8a25.88,25.88,0,0,0,4.682-2.935,41.162,41.162,0,0,1,5.438-3.882,13.091,13.091,0,0,1,3.03-1.17,16.814,16.814,0,0,1,4.111-.464,15.12,15.12,0,0,1,5.866,1.037A339.048,339.048,0,0,1,556.089,431.651Zm42.236-20.887a24.531,24.531,0,0,0-2.1-1.276,19.392,19.392,0,0,0-4.445-1.713,23.026,23.026,0,0,0-5.62-.65,21,21,0,0,0-9.171,1.916,25.845,25.845,0,0,0-4.682,2.935,41.321,41.321,0,0,1-5.438,3.882,13.161,13.161,0,0,1-3.031,1.169,16.85,16.85,0,0,1-4.11.465,14.751,14.751,0,0,1-6.523-1.324,19.787,19.787,0,0,1-3.566-2.259,45.47,45.47,0,0,0-6.279-4.421,19.41,19.41,0,0,0-4.445-1.713,23.024,23.024,0,0,0-5.619-.65H478.32q-6.213-4.013-12.08-8.294h67.054a14.75,14.75,0,0,1,6.522,1.324,19.857,19.857,0,0,1,3.566,2.259,45.324,45.324,0,0,0,6.279,4.421,19.392,19.392,0,0,0,4.445,1.713,23.026,23.026,0,0,0,5.62.65,20.984,20.984,0,0,0,9.171-1.916,25.88,25.88,0,0,0,4.682-2.935,41.255,41.255,0,0,1,5.438-3.882,13.135,13.135,0,0,1,3.03-1.169,16.859,16.859,0,0,1,4.111-.465,14.756,14.756,0,0,1,6.524,1.324,19.787,19.787,0,0,1,3.566,2.259,45.46,45.46,0,0,0,6.28,4.421c.4.212.822.413,1.254.606Q601.079,409.133,598.325,410.764Zm12.447-7.872a13.731,13.731,0,0,1-4.7-1.238A19.726,19.726,0,0,1,602.5,399.4a45.354,45.354,0,0,0-6.281-4.421,19.393,19.393,0,0,0-4.445-1.714,23.075,23.075,0,0,0-5.62-.65,21.009,21.009,0,0,0-9.171,1.916,25.845,25.845,0,0,0-4.682,2.935,41.228,41.228,0,0,1-5.438,3.882,13.117,13.117,0,0,1-3.031,1.17,16.805,16.805,0,0,1-4.11.464,14.723,14.723,0,0,1-6.523-1.324,19.726,19.726,0,0,1-3.566-2.258,45.384,45.384,0,0,0-6.279-4.421,19.411,19.411,0,0,0-4.445-1.714,23.072,23.072,0,0,0-5.619-.65H458.1q-5.058-4.035-9.83-8.293h85.027a14.722,14.722,0,0,1,6.522,1.324,19.851,19.851,0,0,1,3.566,2.258,45.324,45.324,0,0,0,6.279,4.421,19.347,19.347,0,0,0,4.445,1.714,23.075,23.075,0,0,0,5.62.65,21,21,0,0,0,9.171-1.916,25.88,25.88,0,0,0,4.682-2.935,41.255,41.255,0,0,1,5.438-3.882,13.045,13.045,0,0,1,3.03-1.169,16.761,16.761,0,0,1,4.111-.465,14.728,14.728,0,0,1,6.524,1.324,19.732,19.732,0,0,1,3.566,2.259,45.547,45.547,0,0,0,6.28,4.42,19.374,19.374,0,0,0,4.446,1.714,23.075,23.075,0,0,0,5.62.65,21,21,0,0,0,9.171-1.916,25.845,25.845,0,0,0,4.682-2.935,41.321,41.321,0,0,1,5.438-3.882,13.284,13.284,0,0,1,2.2-.932A228.782,228.782,0,0,1,610.772,402.892Zm30.694-24.672c-.78-.074-1.586-.122-2.439-.122a21,21,0,0,0-9.172,1.916,25.88,25.88,0,0,0-4.682,2.935,41.321,41.321,0,0,1-5.438,3.882A13.161,13.161,0,0,1,616.7,388a16.8,16.8,0,0,1-4.11.465,14.728,14.728,0,0,1-6.524-1.324,19.787,19.787,0,0,1-3.566-2.259,45.355,45.355,0,0,0-6.281-4.42,19.347,19.347,0,0,0-4.445-1.714,23.026,23.026,0,0,0-5.62-.65,21,21,0,0,0-9.171,1.916,25.845,25.845,0,0,0-4.682,2.935,41.321,41.321,0,0,1-5.438,3.882A13.161,13.161,0,0,1,563.836,388a16.8,16.8,0,0,1-4.11.465,14.723,14.723,0,0,1-6.523-1.324,19.836,19.836,0,0,1-3.566-2.258,45.3,45.3,0,0,0-6.279-4.421,19.365,19.365,0,0,0-4.445-1.714,23.024,23.024,0,0,0-5.619-.65H441.573q-4.176-4.05-8.1-8.293h99.825a14.737,14.737,0,0,1,6.522,1.323,19.857,19.857,0,0,1,3.566,2.259,45.385,45.385,0,0,0,6.279,4.42,19.347,19.347,0,0,0,4.445,1.714,23.026,23.026,0,0,0,5.62.65,21,21,0,0,0,9.171-1.916,25.88,25.88,0,0,0,4.682-2.935,41.148,41.148,0,0,1,5.438-3.881,13.091,13.091,0,0,1,3.03-1.17,16.814,16.814,0,0,1,4.111-.464,14.728,14.728,0,0,1,6.524,1.324,19.726,19.726,0,0,1,3.566,2.258,45.46,45.46,0,0,0,6.28,4.421,19.419,19.419,0,0,0,4.446,1.713,23.026,23.026,0,0,0,5.62.65,21,21,0,0,0,9.171-1.916,25.845,25.845,0,0,0,4.682-2.935,41.214,41.214,0,0,1,5.438-3.881,13.117,13.117,0,0,1,3.031-1.17,16.814,16.814,0,0,1,4.111-.464,14.726,14.726,0,0,1,6.523,1.324,15.539,15.539,0,0,1,1.9,1.076C645.5,374.258,643.5,376.257,641.466,378.22Zm10.253-10.638a25.051,25.051,0,0,0-2.627-1.634,19.419,19.419,0,0,0-4.446-1.713,22.975,22.975,0,0,0-5.619-.65,21,21,0,0,0-9.172,1.915,25.991,25.991,0,0,0-4.682,2.935,41.162,41.162,0,0,1-5.438,3.882,13.071,13.071,0,0,1-3.031,1.169,16.752,16.752,0,0,1-4.11.465,14.728,14.728,0,0,1-6.524-1.324,19.781,19.781,0,0,1-3.566-2.258,45.354,45.354,0,0,0-6.281-4.421,19.392,19.392,0,0,0-4.445-1.713,22.977,22.977,0,0,0-5.62-.65,21,21,0,0,0-9.171,1.915,25.955,25.955,0,0,0-4.682,2.935,41.228,41.228,0,0,1-5.438,3.882,13.071,13.071,0,0,1-3.031,1.169,16.752,16.752,0,0,1-4.11.465,14.738,14.738,0,0,1-6.523-1.323,19.843,19.843,0,0,1-3.566-2.259,45.384,45.384,0,0,0-6.279-4.421,19.41,19.41,0,0,0-4.445-1.713,22.981,22.981,0,0,0-5.619-.65H427.926q-3.476-4.062-6.73-8.294h112.1a14.722,14.722,0,0,1,6.522,1.324,19.8,19.8,0,0,1,3.566,2.258,45.324,45.324,0,0,0,6.279,4.421,19.393,19.393,0,0,0,4.445,1.714,23.075,23.075,0,0,0,5.62.65,21.013,21.013,0,0,0,9.171-1.916,25.88,25.88,0,0,0,4.682-2.935,41.162,41.162,0,0,1,5.438-3.882,13.091,13.091,0,0,1,3.03-1.17,16.814,16.814,0,0,1,4.111-.464,14.728,14.728,0,0,1,6.524,1.324,19.726,19.726,0,0,1,3.566,2.258,45.46,45.46,0,0,0,6.28,4.421,19.419,19.419,0,0,0,4.446,1.714,23.075,23.075,0,0,0,5.62.65,21.013,21.013,0,0,0,9.171-1.916,25.845,25.845,0,0,0,4.682-2.935,41.228,41.228,0,0,1,5.438-3.882,13.117,13.117,0,0,1,3.031-1.17,16.814,16.814,0,0,1,4.111-.464,14.726,14.726,0,0,1,6.523,1.324,19.726,19.726,0,0,1,3.566,2.258,45.46,45.46,0,0,0,6.28,4.421l.028.014Q653.6,365.476,651.719,367.582Zm7.735-9.243c-.175-.073-.348-.147-.517-.225a19.815,19.815,0,0,1-3.565-2.259,45.546,45.546,0,0,0-6.28-4.421,19.419,19.419,0,0,0-4.446-1.713,23.024,23.024,0,0,0-5.619-.65,21,21,0,0,0-9.172,1.916,25.934,25.934,0,0,0-4.682,2.934,41.241,41.241,0,0,1-5.438,3.883,13.161,13.161,0,0,1-3.031,1.169,16.85,16.85,0,0,1-4.11.465,14.742,14.742,0,0,1-6.524-1.324,19.787,19.787,0,0,1-3.566-2.259,45.439,45.439,0,0,0-6.281-4.421,19.392,19.392,0,0,0-4.445-1.713,23.026,23.026,0,0,0-5.62-.65,21,21,0,0,0-9.171,1.916,25.845,25.845,0,0,0-4.682,2.935,41.321,41.321,0,0,1-5.438,3.882,13.161,13.161,0,0,1-3.031,1.169,16.85,16.85,0,0,1-4.11.465,14.737,14.737,0,0,1-6.523-1.324,19.836,19.836,0,0,1-3.566-2.258,45.383,45.383,0,0,0-6.279-4.422,19.41,19.41,0,0,0-4.445-1.713,23.024,23.024,0,0,0-5.619-.65H416.585q-2.905-4.076-5.624-8.294H533.294a14.722,14.722,0,0,1,6.522,1.324,19.851,19.851,0,0,1,3.566,2.258,45.324,45.324,0,0,0,6.279,4.421,19.347,19.347,0,0,0,4.445,1.714,23.075,23.075,0,0,0,5.62.65,21,21,0,0,0,9.171-1.916,25.88,25.88,0,0,0,4.682-2.935,41.255,41.255,0,0,1,5.438-3.882,13.045,13.045,0,0,1,3.03-1.169,16.761,16.761,0,0,1,4.111-.465,14.728,14.728,0,0,1,6.524,1.324,19.732,19.732,0,0,1,3.566,2.259,45.547,45.547,0,0,0,6.28,4.42,19.374,19.374,0,0,0,4.446,1.714,23.075,23.075,0,0,0,5.62.65,21,21,0,0,0,9.171-1.916,25.845,25.845,0,0,0,4.682-2.935,41.321,41.321,0,0,1,5.438-3.882,13.071,13.071,0,0,1,3.031-1.169,16.761,16.761,0,0,1,4.111-.465,14.726,14.726,0,0,1,6.523,1.324,19.732,19.732,0,0,1,3.566,2.259,45.547,45.547,0,0,0,6.28,4.42,19.365,19.365,0,0,0,4.445,1.714,22.776,22.776,0,0,0,5,.633Q662.215,354.809,659.454,358.339ZM684,317.568c-.113.252-.216.506-.33.757a195.018,195.018,0,0,1-14.3,26.178,16.989,16.989,0,0,1-3.908.421,14.745,14.745,0,0,1-6.524-1.324,19.815,19.815,0,0,1-3.565-2.259,45.462,45.462,0,0,0-6.28-4.42,19.374,19.374,0,0,0-4.446-1.714,23.024,23.024,0,0,0-5.619-.65,21,21,0,0,0-9.172,1.916,25.88,25.88,0,0,0-4.682,2.935,41.321,41.321,0,0,1-5.438,3.882,13.161,13.161,0,0,1-3.031,1.169,16.8,16.8,0,0,1-4.11.465,14.742,14.742,0,0,1-6.524-1.324,19.787,19.787,0,0,1-3.566-2.259,45.355,45.355,0,0,0-6.281-4.42,19.347,19.347,0,0,0-4.445-1.714,23.026,23.026,0,0,0-5.62-.65,21,21,0,0,0-9.171,1.916,25.845,25.845,0,0,0-4.682,2.935,41.321,41.321,0,0,1-5.438,3.882,13.161,13.161,0,0,1-3.031,1.169,16.8,16.8,0,0,1-4.11.465A14.737,14.737,0,0,1,553.2,343.6a19.836,19.836,0,0,1-3.566-2.258,45.3,45.3,0,0,0-6.279-4.421,19.365,19.365,0,0,0-4.445-1.714,23.024,23.024,0,0,0-5.619-.65H438.437V263.976l24.153-9.563-24.153-10.047h-5.184v90.191H407.122q-3.344-5.634-6.355-11.522c-13.517-26.432-21.983-56.715-25.008-91.087-3.542-40.259-3.871-80.8-5.751-123.206,29.554,0,72.733-11.1,105.232-25.682,42.252-18.954,94.695-18.022,136.724,1.423,30.1,13.926,74.759,24.141,96.992,24.141C710.977,180.244,713.722,251.143,684,317.568Z" fill="#fff"/>
      <path d="M517.245,240.59s3.269-4.013-.743-6.836-3.195-3.046-3.195-3.046l10.254-13.226a4.171,4.171,0,0,0-5.053-3.047l-9.659,12.335a18.449,18.449,0,0,1-6.464-6.242c-2.972-4.533-8.842-2.675-11.517,0,0,0,6.464-2.155,14.934,8.248,0,0-17.238-9.585-19.021,1.337,0,0,2.675-2.378,5.275,0,2.676,2.378,6.762-1.337,8.842,0l2.081,1.338s-16.5.3-14.786,9.065a5.135,5.135,0,0,1,5.424-3.715c8.1.371,10.922-2.824,13.3-2.824,0,0,2.3.966,5.721,2.155C516.651,237.469,517.245,240.59,517.245,240.59Z" fill="#fff"/>
      <path d="M577.8,229.519c8.4-10.4,14.935-8.248,14.935-8.248-2.675-2.675-8.545-4.532-11.517,0a18.439,18.439,0,0,1-6.464,6.241L565.1,215.178a4.171,4.171,0,0,0-5.053,3.047L570.3,231.451s.817.222-3.2,3.046-.743,6.836-.743,6.836a6.136,6.136,0,0,1,4.458-4.384c3.418-1.115,5.721-2.155,5.721-2.155,2.378,0,5.2,3.195,13.3,2.824a5.138,5.138,0,0,1,5.424,3.715c1.783-8.842-14.787-9.065-14.787-9.065l2.081-1.337c2.155-1.412,6.315,2.377,8.991-.075a3.914,3.914,0,0,1,5.275,0C595.041,219.933,577.8,229.519,577.8,229.519Z" fill="#fff"/>
      <path d="M572.824,127.723c2.6,15.233-10.1,16.5-10.1,16.5,4.012,11.888-1.709,14.563-1.709,30.167s11.666,17.907,11.666,17.907-6.168-8.471-4.533-13.969c2.6-8.47-.669-19.616-.669-19.616s4.013,6.91,8.694,17.387,16.5,11.294,16.5,11.294-6.984-6.465-9.214-13c-2.229-6.613-15.975-26.527-15.975-26.527a206.146,206.146,0,0,1,23.851,25.709c10.255,13.672,23.48,11.74,23.48,11.74a33.233,33.233,0,0,1-13.6-11.74c-5.053-8.173-27.492-28.681-27.492-28.681,12.185,6.242,15.306,11.146,32.842,26.527s35.145,8.322,35.145,8.322c-7.282-.149-23.331-5.35-30.984-14.713-7.654-9.436-32.025-24.668-32.025-24.668s11.814,2.675,38.415,22.291,44.879,9.436,44.879,9.436c-9.214-.445-29.052-4.383-43.616-15.826-14.638-11.443-36.186-21.994-36.186-21.994,13.226,2.824,33.586,13.3,42.8,19.765s25.932,11.888,37.895,13.523c11.963,1.56,16.866-4.235,16.866-4.235s-5.944.817-23.628-3.641c-17.758-4.384-35.814-16.347-49.189-24a73.617,73.617,0,0,0-24.891-9.065c3.269-1.115,10.4-.966,17.015.446s24.52,12.7,42.279,21.845c17.758,9.064,36.185,10.031,43.1,9.436,6.984-.594,8.693-4.681,8.693-4.681-43.1.669-78.538-30.687-86.563-33.808C597.047,116.132,569.926,110.931,572.824,127.723Z" fill="#fff"/>
      <path d="M512.564,147.711s-13.375,19.913-15.529,26.526c-2.229,6.613-8.991,13-8.991,13s11.517-.817,16.05-11.294,8.47-17.387,8.47-17.387-3.195,11.145-.668,19.617c1.634,5.424-4.385,13.968-4.385,13.968s12.781-2.378,11.369-17.907c-1.56-16.941-1.189-16.867,2.749-28.83,0,0-18.947-1.486-14.266-17.758,4.755-16.347-23.554-11.592-32.842-7.876-7.8,3.121-42.278,34.551-84.26,33.585,0,0,1.709,4.086,8.471,4.681s24.668-.3,41.981-9.437c17.238-9.065,34.7-20.433,41.09-21.845,6.464-1.411,13.374-1.56,16.569-.445,0,0-11.145,1.411-24.222,9.065s-30.613,19.616-47.852,24-23.034,3.64-23.034,3.64,4.756,5.8,16.421,4.236,27.938-7.059,36.855-13.524,28.755-16.94,41.609-19.764c0,0-20.953,10.476-35.219,21.994-14.118,11.517-33.437,15.455-42.353,15.975,0,0,17.758,10.179,43.616-9.437s37.374-22.291,37.374-22.291-23.7,15.232-31.133,24.669-23.034,14.564-30.093,14.712c0,0,17.09,7.059,34.18-8.322s20.136-20.21,31.95-26.526c0,0-21.845,20.582-26.749,28.681A31.784,31.784,0,0,1,466.5,185.16s12.855,1.858,22.811-11.74A213.742,213.742,0,0,1,512.564,147.711Z" fill="#fff"/>
      <path d="M552.39,211.537a77.206,77.206,0,0,1,5.648,6.836s1.337-5.647,8.247-5.127c0,0-16.5-19.616-9.882-38.34s8.471-49.857-12.26-60.929l6.613-6.39s-14.117,2.972-21.622,2.972-6.093,6.836-6.093,6.836c-14.563,1.709-9.882,8.917-9.882,8.917s6.612-5.573,10.848,0-3.269,7.207-3.269,7.207a6.24,6.24,0,0,0,7.5-1.709s3.79,5.944-.966,10.254c-4.681,4.235-9.882,25.56-1.412,40.5s-8.024,29.8-8.024,29.8,6.613-.445,7.8,5.945a85.349,85.349,0,0,1,6.093-6.836C529.8,219.116,522.3,264,508.255,268.454c0,0,16.5.891,24.445-30.762,0,0-4.681,28.979-13.671,39.009,0,0,14.34-4.978,18.353-31.282,0,0-1.412,27.27,4.681,38.341,5.647-11.294,4.681-38.341,4.681-38.341,4.012,26.3,18.353,31.282,18.353,31.282-8.917-10.03-13.672-39.009-13.672-39.009,8.024,31.579,24.445,30.762,24.445,30.762C561.827,264.07,554.323,219.265,552.39,211.537Z" fill="#fff"/>
      <circle cx="638.828" cy="282.585" r="6.358" fill="#fff"/>
      <path d="M637.694,249.964a6.358,6.358,0,1,0-6.358,6.359A6.358,6.358,0,0,0,637.694,249.964Z" fill="#fff"/>
      <path d="M659.562,255.494a6.358,6.358,0,1,0,6.358,6.357A6.358,6.358,0,0,0,659.562,255.494Z" fill="#fff"/>
      <circle cx="652.07" cy="229.231" r="6.358" fill="#fff"/>
    </g>
    <g>
      <path d="M96.066,593.811c-11.974,0-19.5-7.526-19.5-28.052,0-21.1,6.5-28.622,16.421-28.622,9.236,0,15.052,6.158,19.385,20.184h13.114V527.216h-11.4L111.574,536c-4.561-5.815-11.745-9.009-21.552-9.009-19.727,0-36.6,15.851-36.6,40.14,0,23.6,15.394,38.543,39.683,38.543,21.438,0,31.473-12.772,33.411-31.815h-12.2C112.144,586.171,106.328,593.811,96.066,593.811Z" fill="#fff"/>
      <path d="M181.819,528.357h-21.78L136.776,592.9h-8.324v10.947h29.991V592.9h-9.465l3.991-11.974h24.973l3.991,11.974h-9.465v10.947h41.28V592.9h-8.324Zm-25.543,42.534,8.894-26.912h.457l8.894,26.912Z" fill="#fff"/>
      <path d="M256.968,528.813H217.741V539.76h9.236V592.9h-9.236v10.947H258.45V592.9h-9.92V575.566h8.438c23.376,0,33.3-9.464,33.3-23.376C290.265,537.935,280.687,528.813,256.968,528.813Zm-1.71,36.034H248.53V539.19h6.728c9.578,0,12.429,3.421,12.429,12.771C267.687,561.2,264.608,564.847,255.258,564.847Z" fill="#fff"/>
      <path d="M345.572,538.277c8.894,0,10.719,2.965,14.368,22.237h10.605v-31.7H295.17v31.7h10.6c3.649-19.272,5.474-22.237,14.369-22.237h1.938V592.9H310.906v10.947h43.9V592.9H343.633V538.277Z" fill="#fff"/>
      <path d="M421.974,528.357h-21.78L376.931,592.9h-8.324v10.947H398.6V592.9h-9.465l3.991-11.974H418.1l3.991,11.974h-9.465v10.947H453.9V592.9h-8.324Zm-25.543,42.534,8.894-26.912h.457l8.894,26.912Z" fill="#fff"/>
      <polygon points="459.264 539.76 468.843 539.76 468.843 592.899 459.264 592.899 459.264 603.846 499.974 603.846 499.974 592.899 490.395 592.899 490.395 539.76 499.974 539.76 499.974 528.813 459.264 528.813 459.264 539.76" fill="#fff"/>
      <path d="M761.112,593.811c-11.974,0-19.5-7.526-19.5-28.052,0-21.1,6.5-28.622,16.421-28.622,9.236,0,15.052,6.158,19.386,20.184h13.113V527.216h-11.4L776.62,536c-4.561-5.815-11.745-9.009-21.552-9.009-19.727,0-36.6,15.851-36.6,40.14,0,23.6,15.394,38.543,39.683,38.543,21.438,0,31.473-12.772,33.411-31.815h-12.2C777.19,586.171,771.375,593.811,761.112,593.811Z" fill="#fff"/>
      <path d="M839.8,593.241H828.163V539.417h10.719v-10.6H797.374V539.76h9.237V592.9h-9.237v10.947H865.68V571.575H855.3C850.627,590.847,848.689,593.241,839.8,593.241Z" fill="#fff"/>
      <path d="M597.654,562.96c9.675-3.985,15.14-8.765,16.391-15.48l-.91-.455a5.809,5.809,0,0,1-5.123,2.5c-4.666,0-7.854-3.528-7.854-9.105,0-6.26,4.325-11.61,10.927-11.61,7.512,0,12.522,5.577,12.522,14.911,0,12.065-8.538,21.4-23.221,25.382Z" fill="#fff"/>
      <path d="M919.391,539.76h9.351V572.6c0,7.868-1.6,13.227-4.675,16.306-2.737,2.737-6.386,3.991-11.4,3.991-10.264,0-15.851-4.447-15.851-18.245V539.76h10.149V528.813H866.024V539.76h9.237v36.946c0,18.36,10.833,28.965,34.21,28.965,21.666,0,30.788-13.456,30.788-29.763V539.76h8.781V528.813H919.391Z" fill="#fff"/>
      <path d="M1003.662,565.075v-.8c15.052-2.167,20.64-9.122,20.64-17.333,0-8.552-5.588-18.131-30.9-18.131H952.918V539.76h9.236V592.9h-9.236v10.947h41.393c23.833,0,32.272-8.895,32.272-20.412C1026.583,573.057,1019.627,567.014,1003.662,565.075ZM983.707,539.76h7.3c9.35,0,11.745,2.736,11.745,9.351S999.9,559.6,990.891,559.6h-7.184Zm7.525,53.139h-7.525V570.548h7.3c10.377,0,13.8,3.878,13.8,10.834C1004.8,590.048,1001.609,592.9,991.232,592.9Z" fill="#fff"/>
      <polygon points="463.151 649.667 474.24 649.667 474.24 646.191 463.151 646.191 463.151 640.441 475.662 640.441 475.662 636.966 459.264 636.966 459.264 659.082 475.819 659.082 475.819 655.607 463.151 655.607 463.151 649.667" fill="#fff"/>
      <path d="M492.155,646.255c-4.265-1.011-5.276-1.769-5.276-3.476v-.063c0-1.453,1.327-2.623,3.6-2.623a10.048,10.048,0,0,1,6,2.276l2.085-2.939a12.262,12.262,0,0,0-8.025-2.78c-4.392,0-7.551,2.622-7.551,6.414v.063c0,4.076,2.654,5.466,7.361,6.6,4.107.948,4.992,1.8,4.992,3.38v.064c0,1.644-1.516,2.781-3.918,2.781a10.244,10.244,0,0,1-6.982-2.875l-2.338,2.779a13.623,13.623,0,0,0,9.225,3.54c4.645,0,7.9-2.465,7.9-6.6v-.063C499.233,649.066,496.831,647.392,492.155,646.255Z" fill="#fff"/>
      <polygon points="504.92 640.567 511.934 640.567 511.934 659.082 515.852 659.082 515.852 640.567 522.866 640.567 522.866 636.966 504.92 636.966 504.92 640.567" fill="#fff"/>
      <rect x="526.279" y="654.722" width="4.202" height="4.36" fill="#fff"/>
      <path d="M559.991,651.879c3.918-3.192,5.75-5.087,5.75-8.563v-.063c0-3.949-2.97-6.6-7.3-6.6-3.949,0-6.034,1.675-8.151,4.613l2.78,2.18c1.675-2.211,3.065-3.318,5.087-3.318a3.317,3.317,0,0,1,3.57,3.444c0,1.991-1.1,3.381-4.139,5.971l-7.614,6.477v3.065h15.987V655.67H555.441Z" fill="#fff"/>
      <path d="M582.423,636.587c-5.813,0-9.667,5.118-9.667,11.438v.062c0,6.319,3.791,11.374,9.6,11.374s9.668-5.118,9.668-11.436v-.064C592.028,641.642,588.205,636.587,582.423,636.587Zm5.593,11.5c0,4.329-2.148,7.868-5.593,7.868s-5.655-3.571-5.655-7.93v-.064c0-4.392,2.18-7.868,5.592-7.868s5.656,3.571,5.656,7.932Z" fill="#fff"/>
      <polygon points="597.654 638.703 598.475 641.863 602.456 640.757 602.456 659.082 606.31 659.082 606.31 636.808 603.625 636.808 597.654 638.703" fill="#fff"/>
      <path d="M622.614,636.587c-4.9,0-8.246,3.318-8.246,7.646v.063c0,4.266,3.128,7.014,7.835,7.014a6.453,6.453,0,0,0,5.213-2.37c-.031,2.939-1.453,6.983-5.371,6.983a7.517,7.517,0,0,1-5.055-2.086l-2.117,2.971a10.5,10.5,0,0,0,7.077,2.653c5.971,0,9.479-4.929,9.479-12.037v-.064c0-4.36-1.043-6.793-2.654-8.435A8.045,8.045,0,0,0,622.614,636.587Zm4.644,7.488c0,2.148-1.674,3.98-4.486,3.98-2.749,0-4.519-1.642-4.519-3.948v-.064a4.063,4.063,0,0,1,4.392-4.107c2.812,0,4.613,1.769,4.613,4.075Z" fill="#fff"/>
      <path d="M631.429,575.869h11.382c3.528,11.609,10.13,17.755,22.879,17.755,7.74,0,11.951-3.756,11.951-8.878,0-5.918-6.716-7.284-18.553-10.016-12.635-2.846-27.09-7.17-27.09-24.472,0-15.138,12.749-24.7,27.545-24.7,8.877,0,15.593,3.3,19.349,8.422l2.391-8.195h11.041v26.862H680.942c-3.756-11.383-8.993-16.618-19.121-16.618-7.742,0-11.612,4.325-11.612,8.764,0,6.374,7.514,7.854,19.124,10.585,12.519,2.96,26.519,7.171,26.519,23.9,0,14.8-11.609,24.813-28.569,24.813-9.676,0-18.1-4.211-22.2-9.447l-2.619,9.22h-11.04Z" fill="#fff"/>
      <path d="M527.913,547.856h-1.028V592.9h9.58v10.947H506.931V592.9h9.007V539.76h-9.007V528.813h35.006l29.192,51.542h1.028v-40.6h-9.579V528.813h29.534V539.76H583.1v64.77H560.068Z" fill="#fff"/>
    </g>
  </g>
</svg>
